<?xml version="1.0" encoding="utf-8"?>
<!-- Generator: Adobe Illustrator 17.1.0, SVG Export Plug-In . SVG Version: 6.00 Build 0)  -->
<!DOCTYPE svg PUBLIC "-//W3C//DTD SVG 1.1//EN" "http://www.w3.org/Graphics/SVG/1.1/DTD/svg11.dtd">
<svg version="1.1" id="Layer_1" xmlns="http://www.w3.org/2000/svg" xmlns:xlink="http://www.w3.org/1999/xlink" x="0px" y="0px"
	 viewBox="0 0 58.3 90.6" enable-background="new 0 0 58.3 90.6" xml:space="preserve">
<g>
	<path fill="#FFFFFF" d="M10.1,84.4C4.3,79.9,0,72.5,0,61.6l0,0c0.1-11.1,6.9-26.1,13.5-38.5l0,0C20.2,10.7,26.9,0.9,27,0.8l0,0
		C27.3,0.3,27.9,0,28.5,0l0,0c0.6,0,1.2,0.3,1.6,0.8l0,0c0,0,7,9.9,14,22.4l0,0c7,12.5,14.1,27.4,14.2,38.4l0,0
		c0,10.7-4.7,18.2-10.8,22.7l0,0c-6.1,4.5-13.4,6.3-19,6.3l0,0C22.9,90.6,15.9,88.9,10.1,84.4L10.1,84.4z M45.2,81.2
		c5.2-3.9,9.2-10,9.3-19.6l0,0c0-7-3.8-17.2-8.6-27l0,0C41,24.8,35.2,15.4,31.3,9.4l0,0c-1.1-1.7-2-3-2.7-4.1l0,0
		c-0.7,1-1.6,2.4-2.6,4l0,0c-2.5,4-5.8,9.5-9.1,15.6l0,0C10.3,37.1,3.8,52,3.8,61.6l0,0c0,9.9,3.8,15.9,8.7,19.8l0,0
		c4.9,3.8,11.2,5.4,16,5.3l0,0C33.3,86.8,40,85.2,45.2,81.2L45.2,81.2z"/>
</g>
</svg>
