<?xml version="1.0" encoding="utf-8"?>
<!-- Generator: Adobe Illustrator 17.1.0, SVG Export Plug-In . SVG Version: 6.00 Build 0)  -->
<!DOCTYPE svg PUBLIC "-//W3C//DTD SVG 1.1//EN" "http://www.w3.org/Graphics/SVG/1.1/DTD/svg11.dtd">
<svg version="1.1" id="Layer_1" xmlns="http://www.w3.org/2000/svg" xmlns:xlink="http://www.w3.org/1999/xlink" x="0px" y="0px"
	 viewBox="0 0 59.1 72.4" enable-background="new 0 0 59.1 72.4" xml:space="preserve">
<path fill="#FFFFFF" d="M52.9,1.4c-1.8,0-3,0.7-3.9,1.4c-0.5,0.3-5,3.6-9.8,7.1c0,0,0-0.1,0-0.1c0-5.1-4-9.3-9.1-9.7
	C30,0,29.7,0,29.4,0h0c-0.3,0-0.5,0-0.7,0.1c-5.1,0.4-9.1,4.6-9.1,9.7c0,0,0,0.1,0,0.1c-4.7-3.5-9.1-6.7-9.5-7
	C9.2,2.2,8,1.5,6.2,1.5C2.8,1.5,0,4.3,0,7.7c0,1.5,0.6,3,1.6,4.1c0,0,0,0.1,0.1,0.1c0.4,0.4,0.9,0.8,1.4,1.1L18.7,25v40.3
	c0,0.2,0,0.3,0,0.4c0,3.7,3,6.7,6.7,6.7c1.5,0,3-0.5,4.1-1.4c1.1,0.9,2.6,1.4,4.1,1.4c3.7,0,6.7-3,6.7-6.7c0-0.1,0-0.2,0-0.4V25
	L56,12.9c0.5-0.3,1-0.7,1.4-1.1c0,0,0,0,0-0.1c1-1.2,1.6-2.6,1.6-4.1C59.1,4.2,56.3,1.4,52.9,1.4z M29,3.2c0.1,0,0.3,0,0.4,0h0
	c0.1,0,0.3,0,0.4,0c3.4,0.2,6.2,3,6.2,6.5c0,3.5-2.7,6.3-6.2,6.5v0c-0.1,0-0.3,0-0.4,0h0c-0.1,0-0.3,0-0.4,0v0
	c-3.4-0.2-6.2-3-6.2-6.5C22.9,6.3,25.6,3.4,29,3.2z M55.1,9.6L55.1,9.6c-0.3,0.3-0.5,0.5-0.8,0.7L37,23.4v42.1c0,0.1,0,0.2,0,0.2
	c0,1.9-1.6,3.5-3.5,3.5c-1.9,0-3.5-1.6-3.5-3.5V46.2h-1.2v19.5c0,1.9-1.6,3.5-3.5,3.5c-1.9,0-3.5-1.6-3.5-3.5c0-0.1,0-0.1,0-0.2
	V23.4l-17.1-13C4.5,10.2,4.2,10,4,9.8l0,0h0c-0.5-0.5-0.8-1.2-0.8-2c0-1.7,1.4-3,3-3C7,4.7,7.7,5,8.4,5.5C9,5.9,20.2,14.2,26.2,18.6
	h6.5c6-4.4,17.4-12.8,18.1-13.3c0.7-0.5,1.3-0.8,2.1-0.8c1.7,0,3.1,1.4,3.1,3.1C55.9,8.4,55.6,9.1,55.1,9.6L55.1,9.6z"/>
</svg>
