<?xml version="1.0" encoding="utf-8"?>
<!-- Generator: Adobe Illustrator 17.1.0, SVG Export Plug-In . SVG Version: 6.00 Build 0)  -->
<!DOCTYPE svg PUBLIC "-//W3C//DTD SVG 1.1//EN" "http://www.w3.org/Graphics/SVG/1.1/DTD/svg11.dtd">
<svg version="1.1" id="Layer_1" xmlns="http://www.w3.org/2000/svg" xmlns:xlink="http://www.w3.org/1999/xlink" x="0px" y="0px"
	 viewBox="0 0 77 71.6" enable-background="new 0 0 77 71.6" xml:space="preserve">
<path fill="#FFFFFF" d="M67.6,17.3c1-1.5,1.5-3.3,1.6-5.1c0.2-0.8,0.3-1.6,0.3-2.7c0-5.2-4.4-9.4-9.9-9.4c-3.1,0-6,1.4-7.8,3.7
	c-4.2,0.4-6.5,2-6.5,4.6c0,1.3,0.6,3.2,3.8,4.1c0.1,1.6,0.6,3.1,1.3,4.4c-5.1,1.1-7.3,4.7-10.6,11.9c0,0.1-0.1,0.1-0.1,0.2
	c0,0-0.3,0.7-0.7,1.8c-0.7-1.1-1.5-2.1-2.2-3.1c-2.4-3.4-4.2-5.2-7.1-6.1c0.3-0.4,0.5-0.9,0.7-1.4c1-0.3,1.9-1,2.5-2l2.5-3.9
	c0.9-1.4,1-3,0.3-4.3c-0.7-1.3-2.1-2.2-3.7-2.2l-1.4-0.1c-0.5-0.9-1.2-1.6-2.1-2.2c-0.8-0.5-1.8-0.8-2.8-0.9l-0.7-1.3
	c-0.8-1.5-2.2-2.4-3.8-2.4c-1.5,0-2.8,0.8-3.6,2.1l-2.5,3.9c-0.6,0.9-0.8,1.9-0.7,2.8c-1.7,1.8-2.6,4.2-2.6,6.7
	c0,1.8,0.5,3.4,1.3,4.9c-3.4,0.7-6.5,2.5-8.3,7.3l-0.1,0.2C2.4,34.8,0.9,38.6,0.4,40c-0.4,1.4-0.8,3.4,0.2,5.3
	c0.5,0.9,1.5,2,3.4,2.5c0.3,0.1,0.7,0.2,1,0.2l-1.5,4.3c-0.3,1-0.2,2.1,0.4,3c0.6,0.9,1.6,1.4,2.7,1.4h4.5l-0.4,8.5
	c0,0.1,0,0.1,0,0.2c0,3.6,2.6,6.3,6.2,6.3c1.6,0,3.1-0.6,4.2-1.5c1.1,0.9,2.6,1.5,4.2,1.5c3.5,0,6.2-2.7,6.2-6.3c0,0,0-0.1,0-0.2
	L31,56.6h4.5c1.1,0,2.1-0.5,2.7-1.4c0.6-0.9,0.8-2,0.4-3l-1.6-4.5c0.3,0.3,0.7,0.5,1.1,0.7c0.9,0.4,1.7,0.5,2.5,0.5
	c3.3,0,4.8-2.8,5.4-3.9c0,0.1-0.1,0.2-0.2,0.2c0.1-0.2,0.4-0.8,1.5-3.3v22.5c0,3.8,3.1,6.8,6.8,6.8c1.8,0,3.4-0.7,4.6-1.8
	c1.2,1.1,2.8,1.8,4.6,1.8c3.8,0,6.8-3.1,6.8-6.8c0-0.1,0-0.1,0-0.2V48.8c0.2,0,0.5,0.1,0.7,0.1c0.9,0,1.7-0.2,2.5-0.5
	c0.1,0,0.2-0.1,0.3-0.1c0.8-0.5,1.3-0.9,1.8-1.5c1-1.1,1.5-2.5,1.5-3.9V30.4C77,24.3,73.1,19.1,67.6,17.3z M48.6,8.3
	c0-0.8,2.3-1.4,5.1-1.4c1-2.1,3.3-3.6,6-3.6c3.6,0,6.6,2.8,6.6,6.2c0,1-0.1,1.8-0.3,2.2c0,0.1,0,0.1,0,0.2c0,3.7-3,6.8-6.8,6.8
	c-3.8,0-6.8-3-6.8-6.8c0-0.7,0.2-1.4,0.4-2.1C50.4,9.6,48.6,9,48.6,8.3z M18,8.6l2.5-3.9c0.3-0.4,0.6-0.6,0.9-0.6
	c0.3,0,0.7,0.2,0.9,0.7L24,8.2c0.4-0.3,0.9-0.4,1.4-0.4c0.5,0,1,0.1,1.4,0.4c0.9,0.6,1.3,1.6,1.3,2.6l3.8,0.1c1,0.1,1.4,0.8,0.8,1.6
	l-2.5,3.9c-0.3,0.4-0.6,0.6-0.9,0.6c-0.3,0-0.7-0.2-0.9-0.7L26.7,13c-0.4,0.2-0.9,0.4-1.4,0.4c-0.5,0-1-0.1-1.4-0.4
	c-0.9-0.6-1.3-1.6-1.3-2.6l-3.8-0.1C17.8,10.2,17.4,9.5,18,8.6z M17.9,11c0.3,0.1,0.5,0.2,0.9,0.2l2.9,0.1c0,0,0,0.1,0,0.1
	c0.2,1,0.8,1.8,1.7,2.4c0.6,0.4,1.3,0.6,2,0.6c0.3,0,0.6-0.1,0.9-0.1l1.3,2.5c0.1,0.2,0.2,0.3,0.3,0.5c-0.5,3.1-3.1,5.6-6.4,5.6
	c-3.6,0-6.5-2.9-6.5-6.5C15.1,14.1,16.2,12.2,17.9,11z M73.8,42.8c0,0.7-0.3,1.3-0.7,1.8c-0.3,0.3-0.5,0.5-1,0.8
	c-0.4,0.2-0.8,0.3-1.2,0.3c-1.6,0-2.8-1.3-2.8-2.8V29.9H67v34.4c0,0.1,0,0.2,0,0.2c0,2-1.6,3.6-3.6,3.6c-2,0-3.6-1.6-3.6-3.6v-15
	h-2.1v14.8c0,0.1,0,0.2,0,0.2c0,2-1.6,3.6-3.6,3.6c-2,0-3.6-1.6-3.6-3.6V29.9h-1.3c0,0-6.2,13.6-6.2,13.6c-0.7,1.2-1.4,2.2-2.6,2.2
	c-0.3,0-0.7-0.1-1.2-0.3c-0.6-0.3-0.9-0.6-1.2-0.9c-0.5-0.4-1.1-1.1-2-2.4c0,0-7.7-12-7.7-12h-1.5l8.3,23.2h-7.9l0.6,12
	c0,1.7-1.1,3-2.9,3c-1.8,0-3.2-1.4-3.2-3.1c0-0.1,0-0.1,0-0.2l0.6-11.8h-3.3L20,65.1v0.2c0,1.7-1.3,3.1-3.2,3.1
	c-1.8,0-2.9-1.4-2.9-3l0.6-12H6.7l8.2-23.2h-1.5c0,0-4.3,12-4.4,12c-0.7,1.6-1.8,2.6-3.2,2.6c-0.3,0-0.6,0-0.9-0.1
	C3,44.2,3,42.7,3.5,41c0.4-1.5,2.4-6.4,4.3-11.3c1.9-4.9,5.1-5.6,10.5-5.6h5.4c6.2,0,7.5,1.1,10.5,5.4c1.8,2.5,4,5.7,5.6,8.1
	c1.4-3.3,3-7.5,3-7.5c4-8.6,5.6-10.3,11.5-10.3h8.8c5.9,0,10.7,4.8,10.7,10.7V42.8z"/>
</svg>
