<?xml version="1.0" encoding="utf-8"?>
<!-- Generator: Adobe Illustrator 17.1.0, SVG Export Plug-In . SVG Version: 6.00 Build 0)  -->
<!DOCTYPE svg PUBLIC "-//W3C//DTD SVG 1.1//EN" "http://www.w3.org/Graphics/SVG/1.1/DTD/svg11.dtd">
<svg version="1.1" id="Layer_1" xmlns="http://www.w3.org/2000/svg" xmlns:xlink="http://www.w3.org/1999/xlink" x="0px" y="0px"
	 viewBox="0 0 57.4 100.3" enable-background="new 0 0 57.4 100.3" xml:space="preserve">
<g>
	<path fill="#FFFFFF" d="M31.6,43.3c0,0-0.1,0-0.1,0c-1,0-1.9,0.2-2.7,0.5c-0.8-0.3-1.6-0.6-2.6-0.6c0,0-0.1,0-0.1,0
		c-1.3,0-3.2,0.4-5,2.2c-1.3,1.3-2,2.9-2,4.7c0,3.5,2.6,6.1,4,7.5c0.1,0.1,0.2,0.2,0.3,0.3c1,1.1,2.2,2.5,2.3,2.6
		c0.7,0.8,1.8,1.3,3,1.3c0.1,0,0.2,0,0.3,0c1.2-0.1,2.3-0.7,3-1.7c0,0,0.6-0.9,1.6-1.6c1.7-1.3,4.6-4.1,5-7.5
		c0.2-1.9-0.4-3.7-1.6-5.1C35.4,44.2,33.5,43.3,31.6,43.3z M31,55.3c-1.5,1.2-2.4,2.5-2.4,2.5c-0.1-0.1-1.3-1.5-2.3-2.6
		c-1-1.1-5-4.5-2.4-7c0.8-0.8,1.6-1.1,2.2-1.1h0c1.5,0,2.4,1.2,2.5,1.3c0.1-0.1,1.3-1.3,2.9-1.3h0.1c0.7,0,1.5,0.3,2.2,1.1
		C35.9,51,32.5,54.2,31,55.3z M56.9,51.2c-0.6-2.5-2.9-9.8-5.4-17.6l-0.4-1.1c-1.8-5.8-4.8-8.8-8.2-10.4c0.4-0.8,0.5-1.8,0.3-2.7
		l-2.3-9.2c-1.2-5.6-5.6-9.6-11-10.1c-0.1,0-0.3,0-0.4,0c-0.1,0-0.2,0-0.3,0C23.9,0.4,19.4,4.3,18,9.8l-2.7,9.1
		c-0.3,0.9-0.2,1.8,0.2,2.7C11.9,23.1,9,26.1,7,31.7L6.1,34c-2.6,7.5-4.9,13.9-5.6,16.2C-1.5,57.8,2.4,60.3,5,61.1
		c0.8,0.3,1.6,0.4,2.5,0.4c0,0,0.1,0,0.1,0h0l-1.2,3.9c-0.4,1.2-0.2,2.5,0.6,3.5c0.7,1,1.9,1.6,3.1,1.6l5.3,0.1l-1,20.3
		c0,0,0,0.1,0,0.1c0,2.7,0.8,5,2.4,6.7c1.4,1.5,3.3,2.3,5.4,2.3c0,0,0.1,0,0.1,0c2.2,0,4.2-0.9,5.7-2.4c0,0,0.1,0.1,0.1,0.1
		c1.5,1.6,3.5,2.5,5.7,2.5c0,0,0.1,0,0.1,0c4.5,0,7.9-3.7,8-8.8v-0.1L41.5,71l5.3,0.1c0,0,0,0,0.1,0c1.2,0,2.4-0.6,3.1-1.5
		c0.8-1,1-2.3,0.7-3.5l-1.1-3.9c0.1,0,0.1,0,0.2,0c0,0,0.1,0,0.1,0c0.8,0,1.6-0.1,2.3-0.3C54.7,61.1,58.7,58.8,56.9,51.2z
		 M21.8,10.8c1-3.8,4-6.6,7.7-6.9c3.7,0.4,6.7,3.3,7.5,7.1l2.4,9.3l-5-0.1c-1.4,1.4-3.2,2.2-5.1,2.3c-2-0.2-3.8-1.1-5.1-2.5l-5-0.1
		L21.8,10.8z M51.1,58c-0.4,0.1-0.8,0.2-1.2,0.2c0,0-0.1,0-0.1,0c-2,0-3.5-1.7-4.4-4.3l-4.6-15.5l-2,0l8,28.8L37.5,67l0.4,24.4
		c0,2.7-1.6,4.9-4,4.9c0,0,0,0-0.1,0c-2.5,0-4.4-2.3-4.3-5c0-0.1,0-0.2,0-0.3l1.3-24.1l-4.6-0.1l0.4,24.1c0,0.1,0,0.2,0,0.3
		c-0.1,2.7-1.9,4.9-4.4,4.9c0,0,0,0-0.1,0c-2.5,0-4-2.3-3.9-5l1.3-24.4l-9.4-0.2l9-28.5l-2,0L12,53.4c-0.9,2.6-2.5,4.2-4.5,4.2
		c0,0-0.1,0-0.1,0c-0.4,0-0.8-0.1-1.3-0.2c-2.6-0.8-2.6-3.2-1.8-6C5.1,48.9,7.9,41,10.7,33c2.7-7.5,6.8-8.9,13.7-8.9
		c0.3,0,0.7,0,1.1,0l7.5,0.1c7.5,0.1,11.9,1.3,14.4,9.3c2.5,8,5.1,16.1,5.7,18.5C53.8,54.9,53.7,57.3,51.1,58z"/>
</g>
</svg>
