<?xml version="1.0" encoding="utf-8"?>
<!-- Generator: Adobe Illustrator 17.1.0, SVG Export Plug-In . SVG Version: 6.00 Build 0)  -->
<!DOCTYPE svg PUBLIC "-//W3C//DTD SVG 1.1//EN" "http://www.w3.org/Graphics/SVG/1.1/DTD/svg11.dtd">
<svg version="1.1" id="Layer_1" xmlns="http://www.w3.org/2000/svg" xmlns:xlink="http://www.w3.org/1999/xlink" x="0px" y="0px"
	 viewBox="0 0 81.9 92.1" enable-background="new 0 0 81.9 92.1" xml:space="preserve">
<g>
	<path fill="#FFFFFF" d="M4.1,19.9c0-3.9,1.1-7.6,3-10.7c0.3,0.1,0.7,0.1,1.1,0.1c2.6,0,4.7-2.1,4.7-4.7c0-2.6-2.1-4.7-4.7-4.7
		C5.7,0,3.6,2.1,3.6,4.7C3.6,5.3,3.7,6,4,6.5C1.5,10.4,0,15,0,19.9H4.1z M40.4,9.4c0.5,0,1.1-0.1,1.5-0.3c1.7,2.8,2.8,6,3.1,9.4
		c0,0.5,0.1,1,0.1,1.4h4.1c0-0.6,0-1.2-0.1-1.7c-0.3-4.5-1.8-8.7-4.3-12.2C45,5.6,45,5.1,45,4.7C45,2.1,42.9,0,40.4,0
		c-2.6,0-4.7,2.1-4.7,4.7C35.7,7.3,37.8,9.4,40.4,9.4z M69.7,45.2c-6.7,0-12.2,5.5-12.2,12.2c0,6,4.3,10.9,9.9,12
		c-1,10.4-9.7,18.5-20.3,18.6c-10.8,0-19.7-8.4-20.4-19c0-0.5,0-0.9,0-1.4v-9.7c12.6-1.1,22.5-11.6,22.5-24.5v-9.4H45v9.4
		c0,11.3-9.2,20.4-20.5,20.4c-10.8,0-19.7-8.4-20.4-19c0-0.5,0-0.9,0-1.4v-9.4H0v9.4c0,0.6,0,1.2,0.1,1.7
		c0.8,12.1,10.4,21.8,22.5,22.8l0,9.7c0,0.6,0,1.1,0.1,1.7C23.5,82,34.1,92.1,47.1,92.1c12.9,0,23.5-10,24.5-22.6
		c5.9-0.9,10.3-5.9,10.3-12C81.9,50.6,76.5,45.2,69.7,45.2z M69.7,65.4c-4.5,0-8.1-3.6-8.1-8.1c0-4.5,3.6-8.1,8.1-8.1
		c4.5,0,8.1,3.6,8.1,8.1C77.8,61.8,74.2,65.4,69.7,65.4z"/>
</g>
</svg>
