<?xml version="1.0" encoding="utf-8"?>
<!-- Generator: Adobe Illustrator 17.1.0, SVG Export Plug-In . SVG Version: 6.00 Build 0)  -->
<!DOCTYPE svg PUBLIC "-//W3C//DTD SVG 1.1//EN" "http://www.w3.org/Graphics/SVG/1.1/DTD/svg11.dtd">
<svg version="1.1" id="Layer_1" xmlns="http://www.w3.org/2000/svg" xmlns:xlink="http://www.w3.org/1999/xlink" x="0px" y="0px"
	 viewBox="0 0 73 53.1" enable-background="new 0 0 73 53.1" xml:space="preserve">
<g>
	<path fill="#FFFFFF" d="M66.9,35.2c0.9-1.9,1.4-3.9,1.4-6.1c0-7.7-6.2-13.9-13.9-13.9h-18c-2,0-4,0.5-5.8,1.3c0-0.4,0-0.8,0-1.2
		C30.6,6.9,23.7,0,15.3,0C6.9,0,0,6.9,0,15.3c0,8.4,6.9,15.3,15.3,15.3c2,0,4-0.4,5.8-1.1L16.6,40c-2,4.7,0.2,10.2,4.9,12.2
		c1.2,0.5,2.4,0.7,3.6,0.7c3.7,0,7.1-2.2,8.6-5.7l1.8-4.2c0.3,0,0.6,0,0.9,0h5.5c0,0.2,0,0.5,0,0.7c0,2.5,0.9,4.8,2.7,6.6
		c1.8,1.8,4.1,2.7,6.6,2.7l12.5,0.1c5.1,0,9.3-4.2,9.3-9.3C73,39.9,70.4,36.5,66.9,35.2z M15.3,27C8.9,27,3.6,21.7,3.6,15.3
		c0-6.4,5.2-11.7,11.7-11.7C21.7,3.6,27,8.9,27,15.3C27,21.7,21.7,27,15.3,27z M63.7,49.5l-12.6-0.1c-3.1,0-5.6-2.5-5.6-5.6
		c0,0,0,0,0-0.1c0-0.8,0.1-1.5,0.4-2.3l0.9-2H36.4c-1.1,0-2.1-0.2-3.1-0.5l-3,6.9c-0.9,2.1-3,3.4-5.2,3.4c-0.7,0-1.5-0.2-2.2-0.4
		c-2.9-1.2-4.2-4.5-3-7.4l6.8-15.9c1.5-3.9,5.2-6.7,9.6-6.7h18c5.7,0,10.3,4.6,10.3,10.3c0,3.7-2,6.9-4.9,8.7l-0.2,0.4l4.1,0
		c3.1,0,5.6,2.5,5.6,5.6C69.3,47,66.8,49.5,63.7,49.5z"/>
</g>
</svg>
