<?xml version="1.0" encoding="utf-8"?>
<!-- Generator: Adobe Illustrator 17.1.0, SVG Export Plug-In . SVG Version: 6.00 Build 0)  -->
<!DOCTYPE svg PUBLIC "-//W3C//DTD SVG 1.1//EN" "http://www.w3.org/Graphics/SVG/1.1/DTD/svg11.dtd">
<svg version="1.1" id="Layer_1" xmlns="http://www.w3.org/2000/svg" xmlns:xlink="http://www.w3.org/1999/xlink" x="0px" y="0px"
	 viewBox="0 0 28.3 33.1" enable-background="new 0 0 28.3 33.1" xml:space="preserve">
<path fill="#FFFFFF" d="M24.5,16c-0.2-0.4-0.2-1,0-1.4L28,9.3c0.3-0.5,0.4-1,0.2-1.4C28,7.6,27.5,7.4,27,7.4h-7.4
	C19.3,7.4,19,7.6,19,8c0,0.3,0.3,0.6,0.6,0.6H27c0,0,0.1,0,0.1,0c0,0,0,0,0,0.1L23.5,14c-0.5,0.8-0.5,2,0,2.7L27,22c0,0,0,0,0,0.1
	c0,0,0,0-0.1,0H14.1l2.5-1.8c0.7-0.5,1.2-1.6,1.2-2.5V3.7c0-1-0.8-1.8-1.8-1.8H1.2V0.6C1.2,0.3,1,0,0.6,0C0.3,0,0,0.3,0,0.6v31.9
	c0,0.3,0.3,0.6,0.6,0.6c0.3,0,0.6-0.3,0.6-0.6V19h12.3c0.3,0,0.6-0.3,0.6-0.6c0-0.3-0.3-0.6-0.6-0.6H1.2V3.1H16
	c0.3,0,0.6,0.3,0.6,0.6v14.1c0,0.5-0.4,1.2-0.7,1.5l-2.9,2.2c-0.7,0.5-0.6,1-0.5,1.2c0.1,0.2,0.3,0.6,1.2,0.6H27
	c0.6,0,1-0.2,1.2-0.6c0.2-0.4,0.2-0.9-0.2-1.4L24.5,16z"/>
</svg>
