<?xml version="1.0" encoding="utf-8"?>
<!-- Generator: Adobe Illustrator 17.1.0, SVG Export Plug-In . SVG Version: 6.00 Build 0)  -->
<!DOCTYPE svg PUBLIC "-//W3C//DTD SVG 1.1//EN" "http://www.w3.org/Graphics/SVG/1.1/DTD/svg11.dtd">
<svg version="1.1" id="Layer_1" xmlns="http://www.w3.org/2000/svg" xmlns:xlink="http://www.w3.org/1999/xlink" x="0px" y="0px"
	 viewBox="0 0 33 33" enable-background="new 0 0 33 33" xml:space="preserve">
<path fill="#FFFFFF" d="M16.5,0C7.4,0,0,7.4,0,16.5S7.4,33,16.5,33S33,25.6,33,16.5S25.6,0,16.5,0z M28.6,25.7
	c-0.6-0.4-1.9-1.3-4.2-2.1c0.5-2,0.8-4.2,0.8-6.5h6.4C31.6,20.3,30.5,23.3,28.6,25.7z M1.2,17.1h6.4c0,2.3,0.3,4.5,0.8,6.5
	c-2.2,0.8-3.6,1.7-4.2,2.1C2.5,23.3,1.4,20.3,1.2,17.1z M4.3,7.3c0.5,0.4,1.9,1.3,4.2,2.1c-0.5,2-0.8,4.1-0.8,6.5H1.2
	C1.4,12.7,2.5,9.7,4.3,7.3z M17.1,10.6c2.5-0.1,4.5-0.4,6.2-0.9c0.5,1.9,0.8,3.9,0.8,6.1h-7V10.6z M17.1,9.4V1.3
	c2.4,0.4,4.6,3.3,5.9,7.3C21.4,9,19.4,9.4,17.1,9.4z M15.9,1.3v8.1C13.5,9.4,11.6,9,10,8.6C11.3,4.5,13.4,1.7,15.9,1.3z M15.9,10.6
	v5.2h-7c0-2.2,0.3-4.2,0.8-6.1C11.4,10.2,13.4,10.6,15.9,10.6z M8.9,17.1h7v5.3c-2.4,0.1-4.5,0.4-6.2,0.8
	C9.2,21.4,8.9,19.3,8.9,17.1z M15.9,23.6v8.1c-2.4-0.4-4.6-3.2-5.8-7.3C11.6,24,13.5,23.7,15.9,23.6z M17.1,31.7v-8.1
	c2.3,0.1,4.3,0.4,5.8,0.8C21.7,28.4,19.5,31.3,17.1,31.7z M17.1,22.4v-5.3h7c0,2.2-0.3,4.3-0.8,6.1C21.6,22.8,19.5,22.4,17.1,22.4z
	 M25.3,15.9c0-2.3-0.3-4.5-0.8-6.5c2.3-0.8,3.6-1.7,4.2-2.1c1.8,2.4,2.9,5.4,3.1,8.6H25.3z M27.9,6.4c-0.5,0.4-1.7,1.2-3.7,1.9
	c-0.8-2.8-2.1-5-3.6-6.5C23.4,2.6,25.9,4.2,27.9,6.4z M12.5,1.8c-1.5,1.4-2.8,3.7-3.6,6.5c-2-0.7-3.3-1.5-3.7-1.9
	C7,4.2,9.6,2.6,12.5,1.8z M5.1,26.6c0.5-0.4,1.7-1.2,3.7-1.9c0.8,2.7,2.1,5,3.6,6.4C9.6,30.4,7,28.8,5.1,26.6z M20.5,31.2
	c1.5-1.4,2.8-3.7,3.6-6.4c2,0.7,3.2,1.5,3.7,1.8C25.9,28.8,23.4,30.4,20.5,31.2z"/>
</svg>
