<?xml version="1.0" encoding="utf-8"?>
<!-- Generator: Adobe Illustrator 17.1.0, SVG Export Plug-In . SVG Version: 6.00 Build 0)  -->
<!DOCTYPE svg PUBLIC "-//W3C//DTD SVG 1.1//EN" "http://www.w3.org/Graphics/SVG/1.1/DTD/svg11.dtd">
<svg version="1.1" id="Layer_1" xmlns="http://www.w3.org/2000/svg" xmlns:xlink="http://www.w3.org/1999/xlink" x="0px" y="0px"
	 viewBox="0 0 32.9 29.8" enable-background="new 0 0 32.9 29.8" xml:space="preserve">
<g>
	<path fill="#FFFFFF" d="M32.3,5.6c-0.8-2.1-2.2-3.8-4.1-4.6C27,0.3,25.5,0,24.1,0c-3.2,0-6.1,1.5-7.5,3.9l-0.1,0.3L16.3,4
		C14.9,1.6,12,0,8.8,0C7.4,0,5.9,0.4,4.7,1C2.8,1.8,1.3,3.5,0.6,5.6c-0.9,2.4-0.7,5.3,0.4,7.6C3.5,18.6,15.5,29.2,16,29.6
		c0.1,0.1,0.3,0.1,0.4,0.1c0,0,0.1,0,0.1,0c0.1,0,0.3-0.1,0.4-0.2C17.6,29,29.4,18.5,32,13.2C33.1,10.9,33.2,8,32.3,5.6z M30.9,12.7
		c-2.2,4.6-12.4,13.8-14.4,15.7C14.3,26.4,4.2,17.3,2,12.7C1.1,10.7,1,8.2,1.7,6c0.6-1.8,1.9-3.2,3.4-3.9c1.1-0.5,2.4-0.8,3.6-0.8
		c2.8,0,5.3,1.3,6.5,3.3l0.6,1.1C16,5.9,16.2,6,16.4,6c0.2,0,0.4-0.1,0.5-0.3c0,0,0-0.1,0.1-0.1l0.6-1.1c1.2-2,3.7-3.3,6.5-3.3
		c1.3,0,2.5,0.3,3.6,0.8c1.6,0.7,2.8,2.1,3.4,3.9C31.9,8.1,31.8,10.6,30.9,12.7z"/>
	<path fill="#FFFFFF" d="M9.2,3.8c-2.8,0-5.1,2.3-5.1,5.1c0,0.8,0.2,1.6,0.6,2.4c0.1,0.2,0.3,0.3,0.5,0.3c0.1,0,0.2,0,0.3-0.1
		c0.3-0.2,0.4-0.5,0.3-0.8c-0.3-0.5-0.4-1.2-0.4-1.8C5.3,6.8,7,5,9.2,5c0.3,0,0.6-0.3,0.6-0.6C9.8,4.1,9.5,3.8,9.2,3.8z"/>
</g>
</svg>
