<?xml version="1.0" encoding="utf-8"?>
<!-- Generator: Adobe Illustrator 17.1.0, SVG Export Plug-In . SVG Version: 6.00 Build 0)  -->
<!DOCTYPE svg PUBLIC "-//W3C//DTD SVG 1.1//EN" "http://www.w3.org/Graphics/SVG/1.1/DTD/svg11.dtd">
<svg version="1.1" id="Layer_1" xmlns="http://www.w3.org/2000/svg" xmlns:xlink="http://www.w3.org/1999/xlink" x="0px" y="0px"
	 viewBox="0 0 99 119.7" enable-background="new 0 0 99 119.7" xml:space="preserve">
<g>
	<path fill="#A6A8AC" d="M65.8,0.8C65.7,0.8,65.7,0.8,65.8,0.8c-0.1-0.1-0.3-0.2-0.4-0.3c0,0-0.1-0.1-0.1-0.1
		c-0.1-0.1-0.2-0.1-0.3-0.2c0,0-0.1,0-0.1-0.1c-0.1-0.1-0.3-0.1-0.4-0.1c0,0,0,0,0,0c-0.2,0-0.3,0-0.5,0c0,0,0,0,0,0H12.3
		C5.5,0,0,5.5,0,12.3v95.2c0,6.8,5.5,12.3,12.3,12.3h74.5c6.8,0,12.3-5.5,12.3-12.3V33.9c0-0.8-0.3-1.5-0.9-2L65.8,0.8z M89.2,31.4
		h-16c-3.6,0-6.6-3-6.6-6.6V9.5L89.2,31.4z M5.7,67.4h61.8v31.1H5.7V67.4z M86.7,114.1H12.3c-3.6,0-6.6-3-6.6-6.6v-6.1h63.2
		c0.8,0,1.4-0.6,1.4-1.4V66c0-0.8-0.6-1.4-1.4-1.4H5.7V12.3c0-3.6,3-6.6,6.6-6.6H61v19.2c0,6.8,5.5,12.3,12.3,12.3h20.1v70.4
		C93.3,111.1,90.4,114.1,86.7,114.1z"/>
	<polygon fill="#A6A8AC" points="16.4,88.3 23.9,77.3 23.9,75.2 12.1,75.2 12.1,78.3 19.1,78.3 19.1,78.3 11.4,89.5 11.4,91.4 
		24,91.4 24,88.4 16.4,88.4 	"/>
	<rect x="26.3" y="75.2" fill="#A6A8AC" width="3.7" height="16.2"/>
	<path fill="#A6A8AC" d="M43.1,76.4c-1.1-0.9-2.7-1.3-5-1.3c-2.2,0-3.8,0.1-5,0.3v16h3.6v-5.8c0.3,0,0.8,0.1,1.3,0.1
		c2.2,0,4-0.5,5.3-1.7c1-0.9,1.5-2.3,1.5-3.8C44.8,78.6,44.1,77.2,43.1,76.4z M38,82.9c-0.5,0-0.9,0-1.2-0.1V78
		c0.3-0.1,0.8-0.1,1.5-0.1c1.8,0,2.9,0.9,2.9,2.4C41.2,81.9,40,82.9,38,82.9z"/>
</g>
</svg>
