<?xml version="1.0" encoding="utf-8"?>
<!-- Generator: Adobe Illustrator 17.1.0, SVG Export Plug-In . SVG Version: 6.00 Build 0)  -->
<!DOCTYPE svg PUBLIC "-//W3C//DTD SVG 1.1//EN" "http://www.w3.org/Graphics/SVG/1.1/DTD/svg11.dtd">
<svg version="1.1" id="Layer_1" xmlns="http://www.w3.org/2000/svg" xmlns:xlink="http://www.w3.org/1999/xlink" x="0px" y="0px"
	 viewBox="0 0 99.6 120.4" enable-background="new 0 0 99.6 120.4" xml:space="preserve">
<g>
	<path fill="#A6A8AC" d="M66.1,0.8C66.1,0.8,66.1,0.8,66.1,0.8c-0.1-0.1-0.3-0.2-0.4-0.3c0,0-0.1-0.1-0.1-0.1
		c-0.1-0.1-0.2-0.1-0.3-0.2c0,0-0.1,0-0.1-0.1c-0.1-0.1-0.3-0.1-0.4-0.1c0,0,0,0,0,0c-0.2,0-0.3,0-0.5,0c0,0,0,0,0,0H12.3
		C5.5,0,0,5.5,0,12.3v95.8c0,6.8,5.5,12.3,12.3,12.3h74.9c6.8,0,12.3-5.5,12.3-12.3v-74c0-0.8-0.3-1.5-0.9-2.1L66.1,0.8z M89.7,31.6
		H73.6c-3.7,0-6.6-3-6.6-6.6V9.6L89.7,31.6z M5.7,67.8h62.1v31.3H5.7V67.8z M87.2,114.7H12.3c-3.7,0-6.6-3-6.6-6.6v-6.2h63.5
		c0.8,0,1.4-0.6,1.4-1.4V66.4c0-0.8-0.6-1.4-1.4-1.4H5.7V12.3c0-3.7,3-6.6,6.6-6.6h49V25c0,6.8,5.5,12.3,12.3,12.3h20.2v70.8
		C93.9,111.8,90.9,114.7,87.2,114.7z"/>
	<path fill="#A6A8AC" d="M22.5,76.8c-1.1-0.9-2.7-1.3-5-1.3c-2.2,0-3.8,0.1-5,0.3v16.1h3.7v-5.8c0.3,0,0.8,0.1,1.3,0.1
		c2.2,0,4-0.5,5.3-1.7c1-0.9,1.5-2.3,1.5-3.9C24.2,79,23.5,77.7,22.5,76.8z M17.4,83.4c-0.5,0-0.9,0-1.2-0.1v-4.8
		c0.3-0.1,0.8-0.1,1.5-0.1c1.8,0,2.9,0.9,2.9,2.4C20.6,82.4,19.4,83.4,17.4,83.4z"/>
	<path fill="#A6A8AC" d="M38.2,77.3c-1.6-1.2-3.6-1.7-6.7-1.7c-1.9,0-3.6,0.1-5,0.3v16c0.9,0.1,2.3,0.2,4.2,0.2
		c3.2,0,5.8-0.7,7.5-2.1c1.6-1.3,2.7-3.5,2.7-6.6C41,80.5,39.9,78.5,38.2,77.3z M31.6,89.2c-0.5,0-1,0-1.3-0.1V78.5
		c0.3-0.1,0.8-0.1,1.7-0.1c3.2,0,5.1,1.8,5.1,5.2C37.1,87.4,34.9,89.3,31.6,89.2z"/>
	<polygon fill="#A6A8AC" points="43.4,91.9 47.1,91.9 47.1,85.4 53,85.4 53,82.4 47.1,82.4 47.1,78.7 53.4,78.7 53.4,75.6 
		43.4,75.6 	"/>
</g>
</svg>
