<?xml version="1.0" encoding="utf-8"?>
<!-- Generator: Adobe Illustrator 17.1.0, SVG Export Plug-In . SVG Version: 6.00 Build 0)  -->
<!DOCTYPE svg PUBLIC "-//W3C//DTD SVG 1.1//EN" "http://www.w3.org/Graphics/SVG/1.1/DTD/svg11.dtd">
<svg version="1.1" id="Layer_1" xmlns="http://www.w3.org/2000/svg" xmlns:xlink="http://www.w3.org/1999/xlink" x="0px" y="0px"
	 viewBox="0 0 33.8 33.6" enable-background="new 0 0 33.8 33.6" xml:space="preserve">
<g>
	<path fill="#FFFFFF" d="M25.2,12.6c0-7-5.7-12.6-12.6-12.6C5.7,0,0,5.7,0,12.6c0,7,5.7,12.6,12.6,12.6
		C19.6,25.2,25.2,19.6,25.2,12.6z M12.6,24C6.4,24,1.3,18.9,1.3,12.6c0-6.3,5.1-11.4,11.4-11.4C18.9,1.3,24,6.4,24,12.6
		C24,18.9,18.9,24,12.6,24z"/>
	<path fill="#FFFFFF" d="M10.4,4.1c-3.9,1-6.6,4.5-6.6,8.5c0,1.6,0.4,3.1,1.2,4.4c0.1,0.2,0.3,0.3,0.5,0.3c0.1,0,0.2,0,0.3-0.1
		c0.3-0.2,0.4-0.6,0.2-0.9c-0.7-1.1-1-2.5-1-3.8c0-3.4,2.3-6.4,5.6-7.3c0.3-0.1,0.5-0.4,0.4-0.8C11.1,4.2,10.7,4,10.4,4.1z"/>
	<path fill="#FFFFFF" d="M33.1,28.9l-7.2-7.2c-0.7-0.7-2-0.7-2.7,0L21.8,23c-0.7,0.7-0.7,1.9,0,2.7l7.2,7.2c0.4,0.4,1.1,0.7,1.8,0.7
		c0.3,0,0.7-0.1,0.9-0.2l0.1,0l1.6-1.6l0-0.1C34,30.8,33.7,29.6,33.1,28.9z M32.5,31l-1.3,1.3c-0.4,0.1-1,0-1.2-0.3l-7.2-7.2
		c-0.2-0.2-0.2-0.6,0-0.9l1.3-1.3c0.1-0.1,0.3-0.2,0.4-0.2c0.2,0,0.3,0.1,0.4,0.2l7.2,7.2C32.5,30.1,32.6,30.6,32.5,31z"/>
</g>
</svg>
