<?xml version="1.0" encoding="utf-8"?>
<!-- Generator: Adobe Illustrator 17.1.0, SVG Export Plug-In . SVG Version: 6.00 Build 0)  -->
<!DOCTYPE svg PUBLIC "-//W3C//DTD SVG 1.1//EN" "http://www.w3.org/Graphics/SVG/1.1/DTD/svg11.dtd">
<svg version="1.1" id="Layer_1" xmlns="http://www.w3.org/2000/svg" xmlns:xlink="http://www.w3.org/1999/xlink" x="0px" y="0px"
	 viewBox="0 0 77.7 77.4" enable-background="new 0 0 77.7 77.4" xml:space="preserve">
<g>
	<g>
		<path fill="#FFFFFF" d="M38.9,53.6c-8.2,0-15-6.7-15-14.9c0-8.2,6.7-14.9,15-14.9c8.2,0,15,6.7,15,14.9
			C53.8,46.9,47.1,53.6,38.9,53.6z M38.9,25.8c-7.1,0-13,5.8-13,12.9c0,7.1,5.8,12.9,13,12.9c7.1,0,13-5.8,13-12.9
			C51.8,31.6,46,25.8,38.9,25.8z"/>
	</g>
	<g>
		<path fill="#FFFFFF" d="M38.9,45.6c-3.8,0-7-3.1-7-7c0-3.8,3.1-7,7-7c3.8,0,7,3.1,7,7C45.8,42.5,42.7,45.6,38.9,45.6z M38.9,33.7
			c-2.7,0-5,2.2-5,5c0,2.7,2.2,5,5,5c2.7,0,5-2.2,5-5C43.8,36,41.6,33.7,38.9,33.7z"/>
	</g>
	<g>
		<path fill="#FFFFFF" d="M38.9,13.9c-3.8,0-7-3.1-7-7c0-3.8,3.1-7,7-7c3.8,0,7,3.1,7,7C45.8,10.8,42.7,13.9,38.9,13.9z M38.9,2
			c-2.7,0-5,2.2-5,5c0,2.7,2.2,5,5,5c2.7,0,5-2.2,5-5C43.8,4.2,41.6,2,38.9,2z"/>
	</g>
	<g>
		<path fill="#FFFFFF" d="M5,17.9c-2.7,0-5-2.2-5-5c0-2.7,2.2-5,5-5c2.8,0,5,2.2,5,5C10,15.6,7.7,17.9,5,17.9z M5,9.9
			c-1.6,0-3,1.3-3,3s1.3,3,3,3s3-1.3,3-3S6.6,9.9,5,9.9z"/>
	</g>
	<g>
		<path fill="#FFFFFF" d="M11,41.7c-3.8,0-7-3.1-7-7s3.1-7,7-7c3.8,0,7,3.1,7,7S14.8,41.7,11,41.7z M11,29.8c-2.7,0-5,2.2-5,5
			c0,2.7,2.2,5,5,5c2.7,0,5-2.2,5-5C15.9,32,13.7,29.8,11,29.8z"/>
	</g>
	<g>
		<path fill="#FFFFFF" d="M68.8,60.7c-4.9,0-9-4-9-8.9c0-4.9,4-8.9,9-8.9c4.9,0,9,4,9,8.9C77.7,56.7,73.7,60.7,68.8,60.7z
			 M68.8,44.8c-3.8,0-7,3.1-7,6.9c0,3.8,3.1,6.9,7,6.9c3.8,0,7-3.1,7-6.9C75.7,47.9,72.6,44.8,68.8,44.8z"/>
	</g>
	<g>
		<path fill="#FFFFFF" d="M70.8,25.8c-3.8,0-7-3.1-7-7c0-3.8,3.1-7,7-7c3.8,0,7,3.1,7,7C77.7,22.7,74.6,25.8,70.8,25.8z M70.8,13.9
			c-2.7,0-5,2.2-5,5c0,2.7,2.2,5,5,5c2.7,0,5-2.2,5-5C75.7,16.1,73.5,13.9,70.8,13.9z"/>
	</g>
	<g>
		<path fill="#FFFFFF" d="M8.5,76.4c-2.8,0-5-2.2-5-5c0-2.7,2.2-5,5-5c2.7,0,5,2.2,5,5C13.5,74.2,11.2,76.4,8.5,76.4z M8.5,68.5
			c-1.6,0-3,1.3-3,3c0,1.6,1.3,3,3,3c1.6,0,3-1.3,3-3C11.5,69.8,10.1,68.5,8.5,68.5z"/>
	</g>
	<g>
		<path fill="#FFFFFF" d="M30.9,71.4c-3.8,0-7-3.1-7-7s3.1-7,7-7c3.8,0,7,3.1,7,7S34.7,71.4,30.9,71.4z M30.9,59.5c-2.7,0-5,2.2-5,5
			c0,2.7,2.2,5,5,5s5-2.2,5-5C35.9,61.8,33.6,59.5,30.9,59.5z"/>
	</g>
	<g>
		<path fill="#FFFFFF" d="M52.8,77.4c-2.7,0-5-2.2-5-5c0-2.7,2.2-5,5-5c2.8,0,5,2.2,5,5C57.8,75.2,55.6,77.4,52.8,77.4z M52.8,69.5
			c-1.6,0-3,1.3-3,3c0,1.6,1.3,3,3,3s3-1.3,3-3C55.8,70.8,54.5,69.5,52.8,69.5z"/>
	</g>
	<g>
		
			<rect x="6.2" y="20.9" transform="matrix(0.8237 0.5671 -0.5671 0.8237 15.7301 -6.7188)" fill="#FFFFFF" width="24.9" height="2"/>
	</g>
	<g>
		<rect x="37.7" y="13.2" fill="#FFFFFF" width="2" height="12"/>
	</g>
	<g>
		
			<rect x="57.6" y="18.3" transform="matrix(0.4904 0.8715 -0.8715 0.4904 53.5358 -37.1885)" fill="#FFFFFF" width="2" height="17.8"/>
	</g>
	<g>
		
			<rect x="51.3" y="45.1" transform="matrix(0.8626 0.5059 -0.5059 0.8626 31.1222 -22.3313)" fill="#FFFFFF" width="10.8" height="2"/>
	</g>
	<g>
		
			<rect x="37.9" y="59.4" transform="matrix(0.3854 0.9228 -0.9228 0.3854 84.738 -6.4704)" fill="#FFFFFF" width="18.7" height="2"/>
	</g>
	<g>
		<rect x="32" y="51.6" transform="matrix(0.9506 0.3105 -0.3105 0.9506 18.7557 -7.5213)" fill="#FFFFFF" width="2" height="7.1"/>
	</g>
	<g>
		
			<rect x="18.9" y="45.1" transform="matrix(0.7536 0.6574 -0.6574 0.7536 43.5031 1.3631)" fill="#FFFFFF" width="2" height="27.3"/>
	</g>
	<g>
		
			<rect x="16.8" y="35.3" transform="matrix(0.996 8.962225e-002 -8.962225e-002 0.996 3.3413 -1.7302)" fill="#FFFFFF" width="8.3" height="2"/>
	</g>
</g>
</svg>
