<?xml version="1.0" encoding="utf-8"?>
<!-- Generator: Adobe Illustrator 17.1.0, SVG Export Plug-In . SVG Version: 6.00 Build 0)  -->
<!DOCTYPE svg PUBLIC "-//W3C//DTD SVG 1.1//EN" "http://www.w3.org/Graphics/SVG/1.1/DTD/svg11.dtd">
<svg version="1.1" id="Layer_1" xmlns="http://www.w3.org/2000/svg" xmlns:xlink="http://www.w3.org/1999/xlink" x="0px" y="0px"
	 viewBox="0 0 43.3 23.1" enable-background="new 0 0 43.3 23.1" xml:space="preserve">
<g>
	<path fill="#FFFFFF" d="M7.9,23.1c-0.1,0-0.3-0.1-0.4-0.2c0,0-0.1,0-0.1,0c0,0-0.1,0-0.1,0c-0.2-0.1-0.3-0.2-0.4-0.3
		c0,0-0.1,0-0.1,0c-0.2-0.1-0.3-0.2-0.3-0.3c-0.1,0-0.3,0-0.4,0c0,0-0.1-0.1-0.2-0.1c-0.1-0.1-0.2-0.3-0.2-0.4c0,0,0,0,0,0
		c-0.1,0-0.5-0.2-0.6-0.4c0,0-0.1-0.3-0.2-0.4c-0.1-0.1-0.1-0.1-0.2-0.2c-0.1-0.1-0.1-0.1-0.2-0.1c0,0-0.1-0.1-0.2-0.2
		c0,0,0,0-0.1,0c-0.3,0-0.5-0.1-0.6-0.1c-0.1,0-0.2-0.1-0.2-0.1c0,0,0,0,0,0c-0.1,0.1-0.2,0.1-0.3,0.1c-0.1,0-0.3,0-0.4-0.2l0,0
		c-0.2,0-0.3,0-0.5-0.1l-0.2-0.1c-0.1-0.1-0.2-0.3-0.2-0.4c0,0,0,0,0,0c0,0,0-0.1,0-0.1c0-0.1,0-0.2,0-0.3c0,0,0-0.1,0-0.1
		c0,0,0-0.1,0-0.1c0,0,0,0,0,0c0,0,0,0,0-0.1c-0.2-0.1-0.3-0.2-0.4-0.2c-0.1-0.1-0.2-0.2-0.3-0.2c-0.1-0.1-0.1-0.3-0.1-0.4
		c0-0.1-0.1-0.2-0.1-0.3c0,0-0.1-0.1-0.1-0.1c0-0.1-0.1-0.2-0.1-0.3c-0.1-0.1-0.1-0.1-0.1-0.1c-0.1,0-0.1-0.2-0.2-0.3
		c0-0.1-0.1-0.2-0.1-0.3C0.2,16.4,0,16.1,0,15.9c0,0,0-0.1,0-0.2c0-0.1,0-0.2,0.1-0.3c0-0.1,0-0.2,0-0.3c0-0.1,0-0.2,0-0.2
		c0-0.1,0-0.3,0.1-0.4c0,0,0.1-0.1,0.1-0.2c0,0,0-0.1,0.1-0.1c0-0.1,0.1-0.2,0.1-0.3c0-0.1,0-0.1,0.1-0.1c0,0,0.1-0.1,0.1-0.1
		c-0.1-0.2-0.1-0.4,0-0.5l0-0.2c0-0.1,0.1-0.4,0.1-0.4c0,0,0,0,0,0c0,0,0,0,0,0l0-0.1c0-0.1,0-0.2,0-0.2c0-0.1,0.1-0.2,0.2-0.3
		c0-0.1,0.1-0.2,0.1-0.3c0-0.1,0.1-0.2,0.2-0.3c0,0,0,0,0,0c0-0.1,0-0.1,0-0.1c0.1-0.2,0.2-0.3,0.3-0.3c0,0,0.1,0,0.1-0.1
		c0,0,0,0,0,0c0,0,0-0.1,0-0.1c0-0.2,0.1-0.4,0.5-0.6c0.1-0.1,0.1-0.1,0.2-0.2c0,0,0.1-0.1,0.1-0.1C2.7,9.3,3,9.3,3.2,9.5l0,0
		c0.1,0,0.2,0,0.3,0.1c0.2,0,0.3,0.1,0.4,0.2c0.1,0,0.2,0,0.3,0.1c0,0,0.1,0.1,0.1,0.2c0,0,0.1-0.1,0.1-0.1C4.5,9.7,4.8,9.6,5,9.6
		c0.2,0,0.4,0.1,0.5,0.2c0,0,0.1,0,0.1,0c0.1-0.1,0.1-0.1,0.2-0.2C5.9,9.6,6,9.5,6.3,9.4c0,0,0.1,0,0.1-0.1c0-0.1,0.1-0.1,0.2-0.2
		c0-0.1,0.1-0.2,0.1-0.2c0,0,0,0,0.1-0.1C6.9,8.8,7,8.6,7.2,8.6c0,0,0.1,0,0.2,0c0,0,0.1,0,0.2,0c0,0,0,0,0,0c0-0.1,0-0.1,0-0.1
		l0-0.1c0-0.1,0-0.2,0-0.2c0-0.1,0.1-0.3,0.2-0.5C8,7.5,8.2,7.4,8.6,7.4c0.1,0,0.3,0,0.4,0c0,0,0,0,0,0c0,0,0,0,0,0l0,0
		C9,7.2,9.1,7.1,9.1,7c0-0.1,0-0.1,0-0.2c0-0.1,0-0.1,0-0.2c0-0.1,0-0.2,0-0.3c0-0.1,0-0.1,0.1-0.2c0-0.1,0-0.1,0-0.2
		c0-0.1,0-0.2,0.1-0.3c0-0.1,0-0.1,0-0.2l0-0.2c0-0.1,0.1-0.3,0.2-0.4c0,0,0-0.1,0-0.1c0,0,0,0,0,0c0,0,0,0,0,0
		c0.1-0.4,0.4-0.5,0.6-0.5c0.1,0,0.2-0.1,0.3,0c0.1,0,0.1-0.1,0.1-0.1c0,0,0.1-0.1,0.3-0.1C11,3.9,11,3.9,11.1,3.9c0,0,0-0.1,0-0.1
		c0-0.1-0.1-0.2-0.1-0.3c0-0.3,0.3-0.6,0.6-0.5c0,0,0,0,0,0c0,0,0,0,0-0.1c0,0,0-0.1,0.1-0.1c0-0.1,0.1-0.1,0.1-0.2
		c0,0,0-0.1,0.1-0.1c-0.1-0.2,0-0.5,0.4-0.7c0.1-0.1,0.3-0.1,0.4-0.1c0.2-0.1,0.3-0.1,0.5,0c0.2-0.1,0.4-0.1,0.5,0
		c0.1,0,0.2,0,0.2,0c0.1-0.1,0.5-0.3,0.6-0.3c0,0,0.1,0,0.2,0c0,0,0.1,0,0.1,0c0.2,0,0.2,0,0.2,0c0,0,0.1,0,0.1,0
		c0.1-0.1,0.3,0,0.4,0c0,0,0.2,0.1,0.2,0.1c0.2,0.1,0.4,0.4,0.3,0.6c0,0,0,0,0,0.1c0,0,0,0.1,0,0.1c0,0,0,0,0,0c0,0,0,0.1,0.1,0.1
		c0,0,0.1,0,0.1,0c0,0,0.1,0,0.1,0c0.2,0,0.3,0,0.4,0.1c0,0,0-0.1,0.1-0.1c0-0.1,0.1-0.1,0.1-0.2c0-0.1,0-0.2,0.1-0.2
		c0-0.1,0-0.1,0.1-0.2c0-0.1,0.1-0.3,0.2-0.4c0,0,0,0,0,0.1c0-0.2,0.2-0.3,0.4-0.4C17.8,1,17.9,1,18,1c0,0,0.1,0,0.2,0
		c0-0.2,0.2-0.3,0.3-0.4c0,0,0,0,0,0c0-0.1,0.1-0.2,0.3-0.3C18.8,0.1,19,0,19.2,0c0,0,0.1,0,0.1,0c0.2,0,0.4,0.1,0.4,0.2
		c0,0.1,0.1,0.1,0.1,0.2c0.2,0.1,0.4,0.3,0.4,0.6c0,0,0,0.2,0,0.2c0.1,0.2,0.2,0.3,0.2,0.4c0,0,0,0,0.1,0.1c0,0,0.1,0,0.1,0
		c0.3,0,0.5,0.2,0.6,0.5c0,0,0,0.1,0,0.1c0.1-0.1,0.3-0.2,0.4-0.2c0,0,0,0,0,0c0.4,0,0.6,0.2,0.6,0.3c0,0,0,0.2,0,0.2l0,0
		c0.1,0.1,0.1,0.2,0.1,0.3c0,0.1,0,0.3,0,0.4c0,0,0,0,0,0c0,0.1,0.1,0.2,0.1,0.3c0,0,0.1,0.1,0.1,0.3c0,0,0,0.1,0,0.1
		C22.8,4,23,4,23.1,4c0,0,0.1,0,0.1,0c0.2,0,0.3,0,0.4,0c0.1,0,0.1,0,0.1,0.1c0,0,0,0,0,0c0-0.1,0.1-0.2,0.2-0.3c0,0,0-0.1,0-0.1
		c0-0.2,0.1-0.4,0.2-0.5c0,0,0-0.1,0.1-0.1c0,0,0,0,0,0c0.1-0.1,0.1-0.2,0.2-0.2c0.1-0.1,0.1-0.1,0.2-0.2c0.1-0.1,0.2-0.1,0.3-0.1
		c0,0,0.1,0,0.1,0c0,0,0,0,0,0c0,0,0.1,0,0.1,0c0-0.2,0.1-0.4,0.2-0.5c0.1-0.2,0.4-0.2,0.6-0.2c0,0,0.1,0,0.1,0
		c0.1-0.1,0.2-0.2,0.3-0.2c0,0,0.1,0,0.1,0c0.4,0,0.5,0.1,0.6,0.1c0,0,0.1,0.1,0.1,0.1c0,0,0.1,0,0.1,0.1c0,0,0,0,0,0
		c0.1-0.3,0.5-0.4,0.7-0.3c0.1-0.1,0.1-0.1,0.2-0.1c0.1,0,0.2,0,0.3,0c0.2,0,0.4,0.1,0.5,0.2c0.2,0.1,0.3,0.3,0.3,0.4c0,0,0,0,0,0
		c0.1,0,0.2,0.1,0.2,0.1c0.2,0,0.4,0.1,0.5,0.2c0,0,0.1,0.1,0.1,0.1c0,0,0,0,0,0c0,0,0,0,0.1-0.1c0,0,0.1-0.1,0.1-0.1
		c0.1-0.1,0.1-0.1,0.2-0.2c0-0.1-0.1-0.3-0.1-0.5c0-0.1,0.1-0.3,0.3-0.3c0,0,0.3-0.1,0.5-0.2c0.2-0.1,0.5-0.1,0.7,0c0,0,0,0,0,0
		c0,0,0.1-0.1,0.1-0.1c0.1-0.3,0.3-0.4,0.5-0.4c0.1,0,0.2,0,0.3,0.1c0,0,0.2,0,0.2,0c0,0,0.1,0,0.1,0c0.1,0,0.2,0.1,0.3,0.1
		c0.1,0,0.2,0,0.3,0.1c0,0,0,0,0.1,0c0.1-0.1,0.2-0.2,0.4-0.2c0,0,0.1,0,0.1,0c0,0,0.1,0,0.1,0c0.1-0.1,0.2-0.1,0.4-0.1
		c0.1,0,0.1-0.1,0.1-0.1c0.2-0.1,0.5,0,0.7,0.2c0,0,0,0,0.1,0.1c0,0,0.1,0,0.1,0c0.3,0,0.5,0.1,0.6,0.3c0,0,0,0,0.1,0
		c0.2-0.1,0.5-0.2,0.8,0c0,0,0,0,0.1,0.1c0.1,0,0.2,0.1,0.3,0.2c0,0,0,0,0,0c0,0,0.1,0,0.1,0c0.2,0,0.4,0.1,0.5,0.2
		c0.1,0.1,0.2,0.2,0.2,0.3c0,0,0.1,0.1,0.1,0.1c0.2,0.1,0.4,0.2,0.4,0.5c0,0.1,0.1,0.2,0.1,0.3c0,0,0,0,0,0c0.1,0,0.1,0,0.1,0
		c0,0,0.1,0,0.1,0c0.1,0,0.3,0.1,0.4,0.2c0.2-0.1,0.7,0,0.8,0.4c0,0,0,0,0,0c0,0,0,0,0,0c0.2-0.1,0.5-0.1,0.5-0.1
		c0.1,0,0.3,0.1,0.4,0.2c0,0,0.1,0.1,0.1,0.1c0.1,0,0.1,0.1,0.2,0.2c0.1,0,0.2,0,0.4,0.1c0.1-0.1,0.3-0.1,0.4-0.1c0,0,0.1,0,0.1,0
		c0.1,0,0.1,0,0.1,0c0.1,0,0.3,0.1,0.3,0.3c0.1,0.1,0.1,0.3,0,0.5c0,0.3,0,0.4,0,0.5c0.1,0.4-0.2,0.5-0.3,0.6
		c-0.1,0.1-0.2,0.1-0.2,0.2c0,0.1-0.1,0.1-0.1,0.2c0,0,0,0,0,0c0,0-0.1,0.1-0.1,0.2c0,0.1,0,0.2,0,0.3c0,0,0,0.1,0,0.1
		c0,0.2,0,0.3-0.1,0.4c0,0-0.1,0.1-0.1,0.1c0,0,0,0.1,0,0.1c0,0.1,0.1,0.3,0.1,0.4c0,0.1,0,0.2-0.1,0.3c0,0.1-0.1,0.2-0.1,0.3
		c0,0.1,0.1,0.1,0.1,0.2c0,0.1,0,0.3-0.1,0.5c0,0.4-0.2,0.5-0.3,0.6c0,0,0,0-0.1,0c-0.1,0.1-0.1,0.1-0.2,0.1c0,0-0.1,0.1-0.1,0.1
		c0,0.1,0,0.1,0,0.2c-0.1,0.3-0.3,0.4-0.4,0.4c0,0,0,0-0.1,0.1c0,0,0,0.1-0.1,0.2l0,0.3c0,0.1,0,0.5,0,0.6c0,0.1,0,0.3,0,0.5l0,0
		c0.1,0.1,0.1,0.2,0.1,0.3c0,0.2-0.1,0.4-0.2,0.5c0,0.1-0.1,0.3-0.3,0.3c-0.1,0-0.2,0.1-0.2,0.1c0,0,0,0,0,0c-0.1,0.1-0.3,0.1-0.5,0
		c-0.1,0-0.1,0-0.2,0c-0.1,0.1-0.2,0.1-0.3,0.1l0,0c-0.1,0.1-0.2,0.2-0.3,0.2c0,0-0.1,0-0.1,0c-0.1,0-0.1,0.1-0.2,0.1l-0.1,0
		c0,0,0,0,0,0c-0.1,0.2-0.2,0.3-0.3,0.3l-0.1,0c-0.1,0-0.3,0-0.4,0c0,0,0,0-0.1,0c-0.1,0-0.2,0-0.3-0.1c-0.1,0-0.1,0-0.2,0
		c-0.3-0.1-0.4-0.2-0.5-0.4c0,0,0,0-0.1-0.1c-0.2,0-0.3-0.2-0.4-0.3c-0.1-0.1-0.1-0.3-0.1-0.4c0,0-0.2-0.1-0.2-0.3
		c0-0.1-0.1-0.1-0.1-0.2c-0.1,0-0.1,0-0.2-0.1c-0.1,0-0.1,0-0.1,0c0,0-0.2-0.1-0.5-0.4c0,0,0-0.1-0.1-0.1c0,0,0,0,0,0
		c-0.1,0.1-0.2,0.1-0.4,0.1c0,0,0,0,0,0c-0.1,0-0.1,0-0.2,0c-0.1,0.1-0.2,0.3-0.3,0.3c0,0-0.1,0.1-0.3,0.1c0,0-0.1,0-0.1,0l-0.1,0
		c0,0-0.1,0-0.1,0c0,0,0,0,0,0c-0.1,0-0.1,0-0.2,0c0,0-0.1,0-0.1,0.1c-0.1,0-0.1,0.1-0.2,0.1c0,0-0.1,0.1-0.1,0.2
		c-0.1,0.1-0.3,0.2-0.4,0.2c-0.1,0-0.4-0.1-0.5-0.2c0,0,0,0,0-0.1c-0.1,0-0.1,0-0.2,0c-0.1,0.1-0.2,0.1-0.3,0.1c0,0-0.2,0-0.3,0
		c-0.2,0-0.3-0.1-0.4-0.3c0,0,0,0-0.1,0c-0.3,0.1-0.4,0-0.5-0.1c-0.1,0-0.1,0-0.2-0.1c0,0-0.1,0-0.1,0c0,0-0.1,0-0.1,0
		c-0.1,0-0.2,0.1-0.3,0.1c-0.1,0-0.2,0.1-0.3,0.1c0,0,0,0,0,0c-0.1,0.1-0.1,0.1-0.2,0.1c0,0-0.3,0.1-0.3,0.2c-0.1,0-0.2,0.1-0.3,0.1
		c0,0.1,0,0.2-0.1,0.3c0,0,0,0,0,0c0,0.1-0.1,0.2-0.2,0.3c0,0.1-0.1,0.2-0.2,0.3C28,13.5,28,13.6,28,13.6c0,0.1,0,0.2,0,0.3l0,0
		c0,0.1,0,0.3-0.1,0.5c0,0-0.1,0.1-0.1,0.1c0,0.1,0,0.1-0.1,0.1c0,0.1,0,0.2-0.1,0.4c0,0-0.1,0.1-0.1,0.1c0,0,0,0.1,0,0.1
		c0,0.1-0.1,0.2-0.2,0.3c0,0.1-0.1,0.1-0.2,0.2c-0.2,0.1-0.3,0.1-0.4,0.1c-0.1,0-0.1,0-0.2,0c0,0.1-0.1,0.1-0.2,0.2
		C26.2,16,26.1,16,25.9,16c-0.1,0.1-0.1,0.2-0.2,0.3c0,0-0.1,0.1-0.1,0.1c0,0,0,0,0,0c0,0.1-0.1,0.2-0.2,0.3
		c-0.1,0.1-0.2,0.1-0.2,0.1c0,0-0.1,0.1-0.2,0.1c-0.1,0-0.2,0-0.3,0c0,0-0.1,0-0.1,0.1c0,0,0,0,0,0c0,0,0,0-0.1,0.1c0,0,0,0,0,0
		c-0.1,0.3-0.3,0.3-0.5,0.3c0,0-0.1,0-0.1,0c-0.2,0.1-0.5-0.1-0.6-0.3c0,0,0,0,0-0.1c0,0,0,0,0,0c0,0,0,0,0,0
		c-0.1,0-0.2,0.1-0.3,0.1c-0.3,0-0.5-0.2-0.6-0.4c0,0,0,0,0-0.1c0,0,0,0,0,0c0,0-0.1,0-0.1,0c-0.2,0-0.4-0.2-0.5-0.3
		c-0.1,0.1-0.1,0.1-0.1,0.1l-0.2-0.1c0,0,0,0,0,0c0,0,0,0,0,0l-0.3-0.2l0.3,0.2c0,0,0,0,0,0c0,0,0,0,0,0l0.1,0.1
		c-0.1,0.1-0.1,0.2-0.2,0.2c0,0,0,0,0,0c0,0.1,0,0.1,0,0.2c0,0,0,0.1-0.1,0.2c0,0,0,0,0,0c0,0.1,0,0.2,0,0.3c0,0.2-0.1,0.3-0.2,0.4
		c-0.1,0.2-0.5,0.4-0.7,0.3c0,0,0,0,0,0c0,0,0,0-0.1,0c-0.1,0-0.2,0.1-0.3,0c0,0-0.1,0-0.1,0l-0.1,0l-0.1,0.1c0,0-0.1,0.1-0.2,0.1
		c-0.1,0.2-0.3,0.3-0.5,0.3c0,0-0.2,0-0.2-0.1l-0.3,0c0,0-0.1,0-0.2,0c0,0-0.1,0-0.1,0c0,0-0.1,0-0.2,0c-0.1,0.1-0.3,0.1-0.4,0.1
		c0,0-0.1,0-0.1,0c-0.1,0.1-0.2,0.1-0.3,0.1c0,0-0.1,0-0.1,0l-0.1,0C16.6,19,16.5,19,16.3,19c0,0,0,0-0.1,0c0,0,0,0-0.1,0
		c0,0,0,0,0,0.1c0,0,0,0.1,0,0.1c0,0.3-0.2,0.4-0.3,0.5c0,0,0,0.1,0,0.1c0,0.1,0,0.3,0,0.3l0,0.1c0,0,0,0,0,0c0,0,0,0.1,0,0.1
		c0,0,0,0,0.1,0l0.1,0c0.1,0,0.2,0.1,0.3,0.2l0.1,0.1c0.1,0.1,0.2,0.3,0.2,0.4v0.1c0,0.1-0.1,0.3-0.2,0.4c-0.1,0.1-0.3,0.1-0.4,0.1
		c0,0-0.2,0-0.3,0l-0.1,0c-0.1,0.3-0.3,0.4-0.3,0.4c-0.2,0.1-0.3,0.2-0.3,0.2c-0.1,0-0.5,0.1-0.7,0.1l-0.2,0c-0.1,0-0.2,0-0.3,0
		c0,0-0.1,0-0.1,0.1c-0.3,0.1-0.5,0.1-0.7,0c-0.1,0-0.1,0.1-0.2,0.1c-0.1,0-0.2,0.1-0.3,0.1l-0.1,0c-0.1,0-0.2,0-0.3,0.1
		c-0.4,0.1-0.6,0-0.7,0c0,0,0,0-0.1,0c0,0-0.1,0-0.1,0c0,0-0.1,0-0.1,0c-0.2,0-0.4-0.1-0.5-0.1c0,0-0.1,0-0.1,0c0,0-0.1,0-0.1,0
		c0,0-0.2,0-0.3,0c-0.1,0-0.2,0.1-0.3,0.1c-0.1,0-0.2,0-0.3,0c-0.1,0-0.1,0-0.2,0.1c0,0-0.3,0-0.3,0.1c-0.1,0-0.3,0-0.4,0
		c0,0-0.2,0-0.2,0c-0.1,0-0.3,0-0.4,0C8,23,7.9,23.1,7.9,23.1z M10.9,21.9l0,0.5l0.2-0.5C11.1,21.9,11,21.9,10.9,21.9z M8.1,22
		c0,0,0.1,0,0.1,0l0.1,0C8.4,22,8.5,22,8.6,22c0,0,0.1,0,0.1,0c0,0,0.1,0,0.2,0c0-0.1,0.1-0.1,0.2-0.1c0.1,0,0.2-0.1,0.3-0.1
		c0.1,0,0.2,0,0.2,0c0,0,0,0,0,0c0.1-0.1,0.2-0.1,0.5-0.1c0.1,0,0.3,0,0.3,0c0.2,0,0.3,0,0.4,0.1l0,0.1c0.1,0,0.2,0,0.2,0
		c0.4,0,0.6,0,0.7,0.1c0.1,0,0.1,0,0.2,0c0,0,0.1,0,0.2-0.1c0.1,0,0.1,0,0.2-0.1c0.1,0,0.1-0.1,0.1-0.1c0.1-0.1,0.5-0.3,0.8-0.1
		c0.1-0.1,0.3-0.1,0.4-0.1c0.2,0,0.3,0,0.4,0c0.1,0,0.3,0,0.4-0.1c0,0,0,0,0.1-0.1c0,0,0,0,0,0c0.1-0.2,0.1-0.3,0.2-0.4
		c0,0,0,0,0.1,0c-0.1-0.1-0.1-0.3-0.1-0.4c-0.1-0.1-0.1-0.2-0.1-0.3c0-0.2,0-0.3,0.1-0.4c0-0.1-0.1-0.1-0.1-0.2
		c-0.1-0.2,0-0.5,0.2-0.7c0.1,0,0.1-0.1,0.2-0.1c0,0,0-0.1,0-0.1c0-0.1,0-0.3,0.1-0.4c0.1-0.1,0.1-0.2,0.2-0.2c0,0,0.1,0,0.1-0.1
		c0.1,0,0.2-0.1,0.3-0.1c0.1-0.1,0.3-0.1,0.4-0.1c0.1-0.1,0.3-0.1,0.3-0.1c0,0,0,0,0,0c0.1-0.1,0.1-0.1,0.2-0.1c0,0,0,0,0.1,0
		c0,0,0,0,0,0c0,0,0,0,0,0c0.1-0.1,0.3,0,0.5,0c0,0,0,0,0,0c0.1,0,0.2-0.1,0.4,0c0.1,0,0.2-0.1,0.2-0.1c0.1,0,0.2,0,0.4,0.1v0l0.3,0
		c0.1-0.1,0.1-0.1,0.2-0.1c0.1-0.1,0.2-0.1,0.3-0.2c0.2-0.1,0.3-0.1,0.4-0.1c0,0,0,0,0.1,0c0.1,0,0.2,0,0.3,0c0.1,0,0.1-0.1,0.2-0.1
		c0-0.1,0-0.2,0.1-0.3c0-0.1,0-0.3,0.2-0.5c0,0,0,0,0-0.1c0-0.2,0.2-0.4,0.4-0.4c0,0,0.1,0,0.1-0.1c0,0,0-0.1,0.1-0.1l0.5,0.1
		l-0.4-0.3c0.1-0.1,0.3-0.3,0.5-0.3c0.1,0,0.2,0,0.3,0.1c0.2,0,0.4,0.1,0.5,0.3c0.2,0,0.5,0,0.7,0.2c0,0,0,0,0,0
		c0.1,0,0.1,0,0.2,0.1c0,0,0.1,0.1,0.1,0.1c0.1,0,0.2,0,0.3,0.1c0,0,0,0,0,0c0.1,0,0.2,0,0.3,0.1c0.1,0,0.1-0.1,0.2-0.1
		c0.1,0,0.1-0.1,0.2-0.1c0.1,0,0.1-0.1,0.2-0.1c0,0,0.1-0.1,0.1-0.1c0,0,0.1-0.1,0.1-0.1c0,0,0.1-0.1,0.1-0.1c0-0.1,0-0.2,0-0.3
		c0.1-0.2,0.2-0.3,0.4-0.3c0.1,0,0.2,0,0.2,0l0,0c0,0,0,0,0,0c0,0,0,0,0.1-0.1c0,0,0-0.1,0.1-0.1c0.1-0.2,0.4-0.2,0.6-0.2
		c0,0,0,0,0.1,0c0-0.1,0.1-0.2,0.2-0.3c0-0.2,0.1-0.3,0.2-0.4c0-0.1,0-0.1,0.1-0.2c0-0.1,0-0.2,0-0.2c0,0,0,0,0,0c0-0.1,0-0.2,0-0.3
		c0-0.2,0.2-0.4,0.3-0.5c0-0.1,0.1-0.3,0.2-0.3c0,0,0-0.1,0-0.1c0-0.1-0.1-0.2,0-0.3c0-0.2,0.2-0.4,0.5-0.5c0.1-0.1,0.4-0.1,0.5-0.1
		c0,0,0.1,0,0.1,0c0,0,0.1,0,0.1-0.1c0,0,0.1-0.1,0.2-0.1c0.1,0,0.2-0.1,0.3-0.1c0,0,0.1,0,0.1-0.1c0.1-0.1,0.3-0.1,0.4-0.1l0.1-0.1
		c0.1,0,0.2-0.1,0.3-0.1c0,0,0.1,0,0.1,0c0.2-0.1,0.5-0.1,0.7,0.1c0,0,0,0,0,0.1c0.2-0.1,0.6,0,0.7,0.3c0,0,0,0,0,0c0,0,0.1,0,0.1,0
		c0.1,0,0.3-0.1,0.6,0c0.1,0,0.2,0,0.4,0.1c0,0,0,0,0,0c0,0,0.1-0.1,0.2-0.1c0,0,0.1,0,0.1,0c0.1-0.1,0.1-0.1,0.3-0.2
		c0.1-0.1,0.2-0.1,0.4-0.1c0-0.1,0.1-0.1,0.1-0.2c0.1-0.1,0.3-0.2,0.5-0.1c0,0,0.1,0,0.2,0c0,0,0,0,0,0c0-0.1,0.1-0.2,0.3-0.2
		c0.1,0,0.2-0.1,0.3-0.1c0.1,0,0.2,0,0.3,0.1c0.1,0,0.1,0.1,0.2,0.1c0.1,0,0.2,0.1,0.2,0.1c0.2,0.1,0.3,0.2,0.4,0.4c0,0,0.1,0,0.1,0
		c0.3,0,0.5,0.1,0.6,0.3c0,0,0,0.1,0,0.1c0.1,0.1,0.1,0.3,0.1,0.4c0,0,0,0.1,0.1,0.1c0.1,0.1,0.1,0.2,0.2,0.3c0,0.1,0.1,0.1,0.1,0.2
		c0,0,0,0,0.1,0c0.2,0.1,0.3,0.2,0.3,0.3c0,0,0,0,0,0c0,0,0.1,0,0.1,0c0.1-0.1,0.2-0.3,0.5-0.3c0.1,0,0.1,0,0.2,0l0.1,0
		c0.1,0,0.1,0,0.2-0.1c0.1,0,0.1-0.1,0.2-0.1c0.1,0,0.2,0,0.3-0.1c0,0,0,0,0.1,0c0.1-0.1,0.4-0.2,0.6-0.1c0,0,0.1,0,0.1,0l0-0.1
		c0-0.2,0-0.6,0-0.6c0-0.1,0-0.5,0-0.5v-0.4c0-0.2,0.2-0.7,0.2-0.7c0.1-0.1,0.1-0.1,0.2-0.2c0.1-0.1,0.1-0.1,0.2-0.2
		c0-0.2,0.1-0.3,0.2-0.3c0,0,0.2-0.2,0.3-0.3c0-0.1,0.1-0.1,0.2-0.2c0,0,0-0.1,0-0.1C41,8.4,41,8.1,41.1,8c0-0.1,0-0.2,0.2-0.4
		c0,0,0-0.1,0-0.1c0-0.1-0.1-0.3,0-0.4c0-0.1,0-0.2,0-0.2c0-0.1,0-0.3,0.2-0.4c0-0.1,0.1-0.1,0.1-0.1c0,0,0,0,0-0.1
		c-0.1-0.2,0-0.5,0.2-0.8c0,0,0-0.1,0.1-0.1c0-0.3,0.3-0.5,0.5-0.6c0,0,0,0,0,0c-0.1,0-0.2,0-0.3-0.1c0,0,0,0-0.1,0
		c-0.2,0.1-0.4,0-0.7-0.2c0,0-0.1-0.1-0.1-0.1c-0.2,0.1-0.3,0.1-0.7,0l-0.3-0.1c-0.1,0-0.2-0.1-0.3-0.2c-0.1,0-0.2,0-0.2-0.1
		c-0.1,0-0.2-0.1-0.3-0.1c-0.2,0-0.5-0.1-0.5-0.1c-0.1,0-0.3-0.2-0.5-0.3c-0.1-0.2-0.1-0.4-0.1-0.6c0,0,0,0,0,0
		c-0.1,0-0.1-0.1-0.1-0.1c-0.2-0.1-0.3-0.4-0.3-0.4c0,0,0,0,0,0c-0.1,0-0.1,0-0.2,0c-0.1,0-0.3-0.1-0.4-0.1c0,0,0,0-0.1,0
		c-0.1,0.1-0.2,0.2-0.3,0.2c-0.2,0-0.5-0.1-0.6-0.3c0,0,0-0.1-0.1-0.1c0,0,0,0,0,0c-0.1,0-0.2-0.1-0.2-0.1c-0.1,0-0.2,0-0.2,0
		c-0.1,0-0.2-0.1-0.3-0.2c0,0,0,0,0,0c-0.1,0-0.2,0-0.2,0c0,0,0,0,0,0c-0.1,0.2-0.3,0.3-0.5,0.2c0,0-0.1,0.1-0.1,0.1
		c-0.1,0-0.2,0-0.2,0c-0.1,0-0.3,0-0.3,0c-0.1,0-0.2-0.1-0.3-0.1c-0.1,0-0.3-0.1-0.4-0.2c-0.1,0-0.1,0-0.2,0c0,0,0,0-0.1,0
		c0,0.2-0.1,0.3-0.2,0.3c-0.1,0.2-0.3,0.3-0.5,0.3c-0.1,0-0.2,0-0.3,0c0,0.2-0.2,0.4-0.3,0.4c-0.1,0.1-0.2,0.1-0.3,0.1c0,0,0,0,0,0
		c0,0,0,0,0,0.1c0,0.1,0,0.3-0.1,0.4c-0.1,0.1-0.3,0.2-0.4,0.2c-0.2,0.1-0.3,0.1-0.3,0.1c-0.2,0-0.4-0.1-0.5-0.2
		c-0.1,0-0.2-0.1-0.3-0.1c0,0,0,0-0.1-0.1c-0.1,0-0.2,0-0.4-0.1c-0.1,0-0.2-0.1-0.3-0.3c0,0-0.1,0-0.1-0.1c-0.1-0.1-0.2-0.1-0.2-0.2
		c0,0,0-0.1-0.1-0.1c-0.1,0-0.1,0.1-0.2,0.1c0,0-0.1,0-0.1,0c-0.1,0.1-0.1,0.2-0.3,0.2c0,0-0.1,0-0.1,0.1c-0.1,0-0.2,0-0.2,0
		c-0.1,0-0.3,0-0.4-0.1l0,0c-0.1,0-0.2-0.1-0.3-0.1c-0.1,0.1-0.2,0.1-0.3,0.1c0,0-0.1,0-0.1,0c0,0-0.1,0-0.1,0c0,0.1,0,0.3-0.2,0.4
		c-0.1,0.1-0.2,0.2-0.4,0.2c0,0-0.1,0-0.2,0c-0.1,0-0.2,0.1-0.3,0c0,0,0,0-0.1,0c0,0,0,0,0,0c0,0.1-0.1,0.2-0.1,0.3
		c0,0-0.1,0.1-0.2,0.1c0,0.1,0,0.3-0.2,0.5c0,0,0,0.1,0,0.1c0,0.1,0,0.2-0.1,0.4l-0.1-0.1l-0.3,0.1l0.5,0c0,0.2-0.1,0.4-0.2,0.5
		c-0.1,0.1-0.4,0.2-0.6,0.1c-0.1,0-0.1-0.1-0.2-0.1l-0.1-0.1c-0.1-0.1-0.2-0.2-0.3-0.3c0,0,0,0,0,0c0,0,0,0.1-0.1,0.1
		c0,0-0.1,0.1-0.2,0.2c0,0-0.1,0.1-0.2,0.1c-0.1,0-0.2,0.1-0.3,0.1c-0.1,0-0.2,0-0.3,0c-0.2,0.1-0.4,0-0.5,0
		c-0.2-0.1-0.3-0.2-0.3-0.3c-0.1-0.1-0.1-0.3,0-0.6c0-0.1,0.1-0.2,0.1-0.3l0,0c0,0,0-0.1,0.1-0.1c0,0,0,0,0-0.1
		c-0.1-0.1-0.1-0.3-0.1-0.4c0-0.1,0-0.1,0-0.2l0,0c0-0.1,0-0.1,0-0.2c-0.1,0-0.3,0-0.4,0c0,0-0.1-0.1-0.1-0.1c0,0-0.3,0-0.3,0
		c-0.3,0-0.4-0.2-0.4-0.5c0,0,0,0,0,0c0,0-0.1-0.1-0.1-0.1c-0.2-0.1-0.2-0.2-0.3-0.2c0,0,0-0.1-0.1-0.1c-0.1-0.1-0.2-0.3-0.2-0.4
		c0,0,0,0,0-0.1c0-0.1-0.1-0.1-0.1-0.2c0-0.1-0.1-0.1-0.1-0.2c0,0,0,0,0-0.1c0,0-0.1,0-0.1,0c0,0-0.1,0.1-0.1,0.1c0,0,0,0,0,0.1
		c0,0.3-0.3,0.5-0.4,0.5C18.5,2,18.3,2,18.2,2c0,0,0,0,0,0c0,0,0,0.1,0,0.1c0,0,0,0,0,0.1c0,0,0,0,0,0c0,0.2,0,0.3-0.1,0.5
		c0,0.1-0.1,0.1-0.1,0.2c0,0.1,0,0.3-0.1,0.4c-0.1,0.1-0.3,0.2-0.4,0.2c0,0-0.1,0-0.1,0c-0.1,0-0.2,0-0.3,0c-0.1,0-0.3,0.1-0.4,0
		c0,0,0,0,0,0c-0.1,0.1-0.4,0.2-0.5,0.2c0,0-0.1,0-0.1,0c0,0,0,0,0,0c0,0-0.1,0-0.1,0c-0.1,0-0.3-0.1-0.4-0.1
		c-0.2-0.2-0.2-0.4-0.2-0.5c0-0.1,0-0.1,0-0.2c-0.1-0.1-0.1-0.2-0.1-0.5c0,0,0,0,0,0c0,0-0.1,0-0.3,0l-0.1-0.5l0,0.5
		c0,0-0.1,0.1-0.2,0.1c-0.1,0.1-0.2,0.2-0.4,0.2c0,0-0.1,0-0.2,0c-0.1,0-0.2,0-0.3-0.1c-0.1,0-0.2,0-0.2,0c0,0-0.1,0-0.1,0
		c0,0,0,0,0,0c-0.1,0-0.2,0.1-0.2,0.1c0,0,0,0,0,0C13,3,12.9,3.1,12.8,3.1c0,0.1-0.1,0.2-0.2,0.3c0,0.1-0.1,0.3-0.3,0.4
		c0,0.1-0.1,0.1-0.2,0.2c0,0.1,0,0.2-0.1,0.3c0,0,0,0,0,0c0,0.1-0.1,0.2-0.2,0.3c-0.1,0.1-0.2,0.2-0.3,0.2c0,0-0.1,0-0.2,0.1
		l-0.2,0.1c0,0-0.1,0-0.2,0.1c-0.1,0.1-0.3,0.2-0.5,0.2c0,0,0,0,0,0c0,0.1-0.1,0.1-0.1,0.2c0,0,0,0,0,0c0,0.1,0,0.2,0,0.3
		c0,0,0,0.2-0.1,0.4c0,0.3,0,0.4-0.1,0.5c0,0.1,0,0.1,0,0.1c0,0,0,0.1,0,0.2c0,0.1,0,0.2-0.1,0.4c0,0,0,0.1-0.1,0.1l0,0
		c0,0.1,0,0.2-0.1,0.3L9.8,8C9.6,8.3,9.4,8.3,9.3,8.3C9.2,8.4,9,8.5,8.8,8.4c0,0-0.1,0-0.1,0l0,0.1c0,0.1,0,0.2,0,0.3
		c0,0,0,0.1,0,0.2l0,0.2c0,0.2-0.1,0.3-0.2,0.4L8.2,9.5C8,9.6,7.9,9.6,7.7,9.6c0,0-0.1,0-0.1,0c0,0-0.1,0-0.1,0.1L7.5,9.7
		c0,0.1-0.1,0.1-0.1,0.2c0,0-0.1,0.1-0.1,0.1c-0.1,0.1-0.2,0.3-0.4,0.4c0,0-0.1,0-0.1,0c-0.1,0.1-0.2,0.1-0.3,0.1l0,0
		c0,0-0.1,0.1-0.1,0.1c-0.1,0.3-0.4,0.3-0.5,0.3c0,0,0,0,0,0c-0.1,0-0.1,0.1-0.2,0.1C5.6,11,5.5,11,5.4,11c-0.1,0-0.2,0-0.3-0.1
		c-0.1,0-0.1-0.1-0.2-0.1c0,0,0,0,0,0c-0.1,0.2-0.3,0.3-0.6,0.3c-0.2,0.1-0.4,0-0.6-0.2c0,0-0.2-0.1-0.2-0.1c0,0,0,0,0,0
		c0,0-0.1,0-0.1,0c0,0-0.1-0.1-0.2-0.1c-0.1,0-0.1,0-0.2-0.1c-0.1,0,0,0-0.1,0c-0.1,0.1-0.1,0.2-0.3,0.2c0,0.1,0,0.1-0.1,0.2
		c0,0.1,0,0.2-0.1,0.3c-0.1,0.1-0.2,0.1-0.2,0.2c0,0,0,0,0,0c0,0.1,0,0.1-0.1,0.2c0,0.1-0.1,0.1-0.1,0.2c0,0.1-0.1,0.2-0.1,0.2
		c0,0.1-0.1,0.3-0.2,0.4c0,0,0,0,0,0c0,0.1,0,0.1,0,0.2c0,0.1,0,0.4-0.2,0.5v0v0c0.2,0,0.4,0.2,0.4,0.5c0,0.2-0.2,0.4-0.4,0.5
		c0,0.1-0.1,0.2-0.1,0.2c0,0.1,0,0.2-0.1,0.2c0,0.1-0.1,0.1-0.2,0.2c0,0.1-0.1,0.1-0.2,0.2c0,0,0,0,0,0c0,0.1,0,0.2,0,0.3
		c0,0,0,0,0,0c0,0.1,0,0.2,0,0.3c0,0,0.1,0.1,0.1,0.1c0,0,0,0.1,0.1,0.1c0.1,0.1,0.2,0.2,0.3,0.3c0,0.1,0,0.2,0,0.3
		c0.2,0.1,0.3,0.2,0.4,0.3c0,0.1,0,0.2,0,0.4c0,0,0,0,0,0c0,0,0,0.1,0.1,0.2c0,0.1,0.1,0.2,0.1,0.3c0,0,0,0.1,0,0.1c0,0,0,0,0,0
		c0,0,0,0,0,0c0,0,0,0,0,0l0.1,0c0.1,0,0.3,0,0.4,0.1c0.1,0.1,0.2,0.2,0.2,0.4c0,0,0,0,0,0.1c0,0,0,0,0,0.1c0,0,0.1,0.1,0.1,0.1
		C3,18.6,3,18.8,3,18.9c0,0,0,0.1,0,0.1c0,0,0,0.1,0,0.1c0,0,0,0,0,0c0.1,0,0.1,0,0.2,0.1c0,0,0,0,0,0c0,0,0,0,0,0
		c0.1,0,0.2,0,0.4,0c0.2,0,0.3,0.1,0.4,0.2c0.1,0,0.1,0,0.2,0c0.2,0,0.4,0.1,0.6,0.3c0,0,0.2,0.2,0.2,0.2c0.1,0.1,0.3,0.1,0.3,0.3
		c0.1,0.1,0.2,0.2,0.2,0.2c0,0.1,0.1,0.2,0.1,0.3c0,0,0.1,0,0.1,0.1c0.1,0,0.3,0.1,0.3,0.1c0,0,0.2,0.2,0.3,0.4c0.1,0,0.2,0,0.3,0.1
		c0.1,0,0.2,0.1,0.3,0.2c0.1,0,0.2,0.1,0.3,0.2c0.1,0.1,0.2,0.1,0.3,0.2C7.8,22,7.9,22,8.1,22C8,22,8,22,8.1,22z M18.3,17.7l0.1,0.5
		v-0.5C18.3,17.8,18.3,17.7,18.3,17.7z M31.3,1.8l0,0.5l0-0.3c0,0,0,0,0,0c0,0,0,0,0,0l0-0.1l0,0l0,0L31.3,1.8L31.3,1.8
		C31.3,1.8,31.3,1.8,31.3,1.8z"/>
</g>
</svg>
