<?xml version="1.0" encoding="utf-8"?>
<!-- Generator: Adobe Illustrator 17.1.0, SVG Export Plug-In . SVG Version: 6.00 Build 0)  -->
<!DOCTYPE svg PUBLIC "-//W3C//DTD SVG 1.1//EN" "http://www.w3.org/Graphics/SVG/1.1/DTD/svg11.dtd">
<svg version="1.1" id="Layer_1" xmlns="http://www.w3.org/2000/svg" xmlns:xlink="http://www.w3.org/1999/xlink" x="0px" y="0px"
	 viewBox="0 0 124.1 29.8" enable-background="new 0 0 124.1 29.8" xml:space="preserve">
<g>
	<g>
		<path fill="#29ABE2" d="M106.9,0c-6.5,0-11.7,5.3-11.7,11.7c0,6.5,5.3,11.7,11.7,11.7c6.5,0,11.7-5.3,11.7-11.7
			C118.6,5.3,113.4,0,106.9,0 M116,5.2c-0.6,0.4-1.2,0.8-1.9,1.1c-0.4-0.8-0.9-1.5-1.4-2.2c0.5-0.3,0.9-0.6,1.4-1
			C114.8,3.7,115.5,4.4,116,5.2 M111.1,1.3c0.9,0.4,1.8,0.9,2.6,1.5c-0.4,0.3-0.8,0.6-1.3,0.9c-0.6-0.7-1.2-1.3-1.9-1.8
			C110.7,1.7,110.9,1.5,111.1,1.3 M112,4c-0.6,0.3-1.3,0.6-2,0.8c-0.3-0.7-0.6-1.3-1-1.9c0.4-0.2,0.7-0.4,1.1-0.6
			C110.8,2.7,111.4,3.3,112,4 M110.6,1.1c-0.2,0.2-0.3,0.4-0.5,0.5c-0.6-0.4-1.3-0.8-2-1.1C109,0.6,109.8,0.8,110.6,1.1 M109.7,2
			c-0.3,0.2-0.6,0.4-0.9,0.5c-0.3-0.5-0.7-1.1-1.1-1.6C108.4,1.2,109.1,1.5,109.7,2 M107.1,1c0.4,0.5,0.8,1.1,1.2,1.7
			c-0.4,0.1-0.8,0.2-1.2,0.2V1z M107.1,3.3c0.5,0,1-0.1,1.5-0.3c0.4,0.6,0.7,1.2,1,1.9c-0.8,0.2-1.6,0.3-2.4,0.3V3.3z M106.6,1v1.9
			c-0.4,0-0.8-0.1-1.2-0.2C105.8,2.1,106.2,1.5,106.6,1 M105,2.5c-0.3-0.1-0.6-0.3-0.9-0.5c0.6-0.4,1.3-0.8,2-1.1
			C105.7,1.4,105.3,1.9,105,2.5 M105.7,0.6c-0.7,0.3-1.4,0.7-2,1.1c-0.2-0.2-0.4-0.3-0.5-0.5C104,0.8,104.8,0.6,105.7,0.6
			 M113.7,20.7c-1.6-0.9-1.6-2-1.5-2.5c0.1-0.4,0.4-0.3,0.6-0.3c1,0,2.1-0.3,3.4-1.7c1.5-1.5,2-4.9-0.3-7.1c-2.5-2.4-5.1-2-6.8,0.2
			c-0.3,0.4-1.2,0.8-1.9,0.7c-1.1,0-0.4,0.8-0.4,1c0,0.2-0.2,0.3-0.3,0.3c-0.4-0.1-0.2,0.4-0.2,0.6c0,0.2-0.2,0.2-0.2,0.2
			c-0.5,0-0.3,0.4-0.3,0.5c0,0.1,0,0.3-0.2,0.4c-0.1,0.1-0.3,0.4-0.3,0.7c0,0.5,0.5,0.8,1.2,1.4c0.8,0.6,0.9,1.1,0.9,1.5
			c0,0.4,0,1,0.2,1.4c0.2,0.5,0.2,1.4-0.9,1.5c-1.3,0.1-3.6,1.1-3.8,1.2c-0.7,0.3-1.7,0.3-2.4,0.2c-0.4-0.3-0.8-0.6-1.2-0.9
			c-0.1-0.5,0.1-1.1,0.4-1.4c0.4,0.4,1.1,0.4,1.4,0.4c0.4,0,2.1-0.3,2.4-0.3c0.3-0.1,0.4-0.1,0.5,0c0.7,0.2,1.6,0.3,2-1
			c0.4-1.3-0.5-0.9-0.6-0.9c-0.1,0.1-0.3,0-0.2-0.1c0.2-0.3-0.1-0.3-0.2-0.3c-0.4,0-0.8,0.3-1,0.5c-0.2,0.1-0.3,0.1-0.4,0.1
			c-0.5-0.2-1.9,0.1-2.3-0.7c0-0.2-0.4-3.3-0.6-3.9c0-0.1-0.1-0.3,0.1-0.5c0.4-0.5,1.4,0,1.9,0c0.6,0,0.8-0.3,0.9-0.5
			c0.2-0.2,0.3-0.1,0.4-0.2c0.1-0.1,0-0.2,0-0.3c0-0.1,0.1,0,0.2-0.1c0.1-0.1,0-0.3,0-0.4c0.2-0.2,0.6,0,0.3-0.7
			c-0.1-0.3,0.1-0.7,0.2-1c0.3-0.4,1.5-2.1-0.6-3.9c-2-1.7-4.1-1.6-5.4-0.1c-1.3,1.4-0.7,3.5-0.5,4.1c0.1,0.6-0.3,1.1-0.7,1.3
			c-0.4,0.2-1.2,0.7-1.8,1.3c0.1-4.5,2.8-8.5,7-10.2c0.2,0.2,0.4,0.4,0.6,0.6c-0.5,0.3-1.5,1.3-1.5,1.3s0.1,0,0.3,0.1
			c0.1,0,0.3,0.1,0.3,0.1s0.9-0.8,1.3-1.1c0.3,0.3,0.7,0.5,1.1,0.6c-0.2,0.3-0.7,1.3-0.7,1.3s0.1,0.1,0.2,0.1
			c0.1,0.1,0.2,0.1,0.2,0.1s0.6-1.1,0.8-1.4c0.5,0.2,1,0.2,1.5,0.3v1.9c-0.3,0-1,0-1.3-0.1l-0.2,0l0.1,0.2c0.1,0.1,0.1,0.2,0.2,0.3
			l0,0l0,0c0.2,0,0.9,0,1.1,0v3.5h0.5V8.4c0.7,0,1.3-0.1,2-0.1l0,0l0.6-0.6l-0.3,0c-0.8,0.1-1.4,0.1-2,0.2c0,0-0.2,0-0.3,0V5.7
			c0.9,0,1.8-0.1,2.6-0.4c0.2,0.6,0.7,2,0.7,2l0.5-0.1c0,0-0.4-1.4-0.7-2c0.7-0.2,1.4-0.5,2.1-0.9c0.5,0.7,1,1.4,1.4,2.2
			c-0.3,0.2-1,0.4-1,0.4c0.5,0.1,0.9,0.2,0.9,0.2s0.2-0.1,0.3-0.1c0,0.1,0.1,0.3,0.1,0.3l0.6,0.3l-0.1-0.2c0,0-0.2-0.5-0.3-0.6
			c0.7-0.3,1.3-0.7,2-1.1c1.2,1.8,1.8,4,1.8,6.2C118.1,15.4,116.4,18.6,113.7,20.7"/>
		<path fill="#29ABE2" d="M94.1,3.1l-0.2,0.2c-0.7,0.6-2.3,2.2-2,4c0,0,0,0.1,0,0.1c0,0,0.1,0.3,0.1,0.3l0.2-0.2
			c1-0.9,1.7-2.4,2-4.1L94.3,3L94.1,3.1z"/>
		<path fill="#29ABE2" d="M90.9,6.2l-0.1,0.2c-0.1,0.3-0.3,0.9-0.4,1.7c-0.1,1.2-0.1,2.8,0.9,4c0,0,0.1,0.1,0.1,0.1l0.1,0.1l0.2-0.7
			c0.2-1.3-0.1-4.1-0.5-5.3L91,6L90.9,6.2z"/>
		<path fill="#29ABE2" d="M89.7,10.9l0,0.2c-0.1,1.2,0,4.1,2.3,5.7l0.3,0.2l0-0.3c0-1.1-1.3-4.4-2.3-5.6l-0.3-0.3L89.7,10.9z"/>
		<path fill="#29ABE2" d="M90.1,16.2l0,0.2c0.3,1.7,1.9,4.4,4.4,5.2l0.3,0.1l-0.1-0.3c-0.5-1.3-2.8-4.2-4.4-5.2L90.1,16L90.1,16.2z"
			/>
		<path fill="#29ABE2" d="M95.1,5.7l-0.2,0.1c-1.8,1.1-2.7,2.5-2.6,4.1l0,0.4l0.3-0.2c1-0.8,2.2-2.9,2.6-4.1l0.1-0.4L95.1,5.7z"/>
		<path fill="#29ABE2" d="M94,9.3l-0.1,0.1c-0.5,0.4-2,2.1-1.9,4.1c0,0.3,0.1,0.6,0.2,1l0.1,0.3l0.2-0.3c0.7-1,1.7-3.7,1.6-5l0-0.4
			L94,9.3z"/>
		<path fill="#29ABE2" d="M94.1,12.8L94,12.9c-0.8,1.1-1.2,2.3-1.1,3.4c0,0.8,0.3,1.6,0.8,2.3l0.2,0.2l0.1-0.3
			c0.3-0.6,0.6-2.6,0.6-4.2c0-0.6-0.1-1-0.2-1.3l-0.1-0.4L94.1,12.8z"/>
		<path fill="#29ABE2" d="M95,16.5l0,0.2c-0.2,0.7-0.3,1.5-0.3,2.1c0,1.6,0.7,2.8,2,3.6l0.2,0.1l0-0.3c0,0,0-0.2,0-0.2
			c0-1.3-1-4.4-1.7-5.4L95,16.3L95,16.5z"/>
		<path fill="#29ABE2" d="M92.4,21.4l0.1,0.2c1,1.7,2.7,3.8,5.8,3.2l0.3,0l-0.2-0.2c-0.6-0.9-4.4-3-5.7-3.2l-0.4-0.1L92.4,21.4z"/>
		<path fill="#29ABE2" d="M97,25.6L97,25.6l-0.5,0.1l0.5,0.2c2,0.8,4.5,1.1,5.9,0.6c0.5-0.2,0.9-0.5,1.3-0.9
			c2.5,0.3,4.9,2.4,6.3,4.1l0.1,0.1l0.1,0c0.2-0.1,0.4-0.2,0.5-0.3l0.1-0.1l-0.1-0.1c-1.5-1.9-3.7-3.1-3.8-3.1
			C105.4,25.1,101.8,24.3,97,25.6"/>
		<path fill="#29ABE2" d="M97.1,20.3l0,0.2c0.3,1.9,1.1,4.3,4.2,4.1l0.2,0l0-0.2c-0.2-0.9-3.1-3.3-4.1-4l-0.3-0.2L97.1,20.3z"/>
		<path fill="#29ABE2" d="M119.5,3l0.1,0.5c0.3,1.7,1,3.2,2,4.1l0.2,0.2c0,0,0.1-0.3,0.1-0.3c0,0,0-0.1,0-0.1c0.2-1.8-1.3-3.4-2-4
			l-0.2-0.2L119.5,3z"/>
	</g>
	<g>
		<path fill="#29ABE2" d="M122.8,6l-0.2,0.4c-0.5,1.2-0.7,4-0.5,5.3l0.1,0.7l0.1-0.1c0,0,0.1-0.1,0.1-0.1c1-1.2,1-2.9,0.9-4
			c-0.1-0.8-0.3-1.4-0.4-1.7l-0.1-0.2L122.8,6z"/>
		<path fill="#29ABE2" d="M124.1,10.7l-0.3,0.3c-1,1.2-2.3,4.5-2.3,5.6l0,0.3l0.3-0.2c2.4-1.6,2.4-4.5,2.3-5.7l0-0.2L124.1,10.7z"/>
	</g>
	<g>
		<path fill="#29ABE2" d="M123.7,16l-0.3,0.2c-1.5,1-3.9,3.9-4.4,5.2l-0.1,0.3l0.3-0.1c2.5-0.8,4.1-3.5,4.4-5.2l0-0.2L123.7,16z"/>
		<path fill="#29ABE2" d="M118.6,5.5l0.1,0.4c0.3,1.2,1.5,3.3,2.5,4.2l0.3,0.2l0-0.4c0.1-1.7-0.7-3-2.5-4.2l-0.2-0.1L118.6,5.5z"/>
		<path fill="#29ABE2" d="M119.7,9.2l0,0.4c0,1.3,0.9,3.9,1.6,5l0.2,0.3l0.1-0.3c0.1-0.3,0.2-0.7,0.2-1c0.1-2-1.4-3.6-1.9-4.1
			l-0.1-0.1L119.7,9.2z"/>
		<path fill="#29ABE2" d="M119.6,12.6l-0.1,0.4c-0.1,0.3-0.2,0.8-0.2,1.3c0,1.6,0.2,3.6,0.6,4.2l0.1,0.3l0.2-0.2
			c0.5-0.7,0.7-1.5,0.8-2.3c0-1.1-0.4-2.2-1.1-3.4l-0.1-0.2L119.6,12.6z"/>
		<path fill="#29ABE2" d="M118.8,16.3l-0.2,0.3c-0.7,1-1.7,4.1-1.7,5.4c0,0,0,0.2,0,0.2l0,0.3l0.2-0.1c1.3-0.8,2-2.1,2-3.6
			c0-0.7-0.1-1.4-0.3-2.1l0-0.2L118.8,16.3z"/>
		<path fill="#29ABE2" d="M121.5,21.2l-0.4,0.1c-1.3,0.2-5.1,2.4-5.7,3.2l-0.2,0.2l0.3,0c3.1,0.5,4.8-1.6,5.8-3.2l0.1-0.2
			L121.5,21.2z"/>
		<path fill="#29ABE2" d="M106.4,26.1c-0.1,0-2.4,1.2-3.8,3.1l-0.1,0.1l0.1,0.1c0.1,0.1,0.3,0.3,0.5,0.3l0.1,0l0.1-0.1
			c1.4-1.7,3.8-3.9,6.3-4.1c0.4,0.4,0.7,0.7,1.3,0.9c1.5,0.5,3.9,0.2,5.9-0.6l0.5-0.2l-0.5-0.1C112.1,24.3,108.4,25.1,106.4,26.1"/>
		<path fill="#29ABE2" d="M116.7,20.1l-0.3,0.2c-1,0.7-3.9,3.2-4.1,4l0,0.2l0.2,0c3.2,0.3,3.9-2.2,4.2-4.1l0-0.2L116.7,20.1z"/>
		<path fill="#29ABE2" d="M36.6,1.2h4v3.6h-4V1.2z M37,8.9h3.3v17.6H37V8.9z"/>
		<path fill="#29ABE2" d="M11.8,8.9h3.3v17.6h-3.3v-2.6h-0.1c-1.3,2.2-3.6,3.1-6,3.1C2.1,27,0,24.2,0,20.7V8.9h3.3v10.4
			c0,3,0.7,5.3,3.9,5.3c1.4,0,3.2-0.7,3.9-2.5c0.6-1.6,0.7-3.7,0.7-4.1V8.9z"/>
		<path fill="#29ABE2" d="M21.8,11.5L21.8,11.5c1.2-2.2,3.6-3.1,5.4-3.1c1.2,0,6.7,0.3,6.7,6v12.2h-3.3V15.4c0-2.9-1.2-4.5-4-4.5
			c0,0-1.8-0.1-3.2,1.3c-0.5,0.5-1.4,1.3-1.4,4.7v9.6h-3.3V8.9h3.3V11.5z"/>
		<path fill="#29ABE2" d="M54.2,14.5c-0.2-2.2-1.2-3.7-3.6-3.7c-3.2,0-4.4,2.7-4.4,6.9c0,4.1,1.2,6.9,4.4,6.9c2.2,0,3.6-1.4,3.7-3.9
			h3.3c-0.3,3.9-3.2,6.3-7.1,6.3c-5.6,0-7.8-4-7.8-9.1c0-5.1,2.6-9.4,8.1-9.4c3.7,0,6.5,2.3,6.6,6.1H54.2z"/>
		<path fill="#29ABE2" d="M62.6,18.3c-0.2,3.1,1,6.2,4.4,6.2c2.6,0,3.9-1,4.2-3.6h3.5c-0.5,4-3.6,6-7.8,6c-5.6,0-7.8-4-7.8-9.1
			c0-5.1,2.6-9.4,8.1-9.4c5.2,0.1,7.7,3.4,7.7,8.3v1.6H62.6z M71.5,16c0.1-2.9-1.3-5.2-4.5-5.2c-2.8,0-4.4,2.3-4.4,5.2H71.5z"/>
		<path fill="#29ABE2" d="M78.7,26.4V11.2h-3V8.9h3V5.2c0.1-3.8,3-4.8,5.5-4.8c0.8,0,1.6,0.2,2.4,0.3v2.8c-0.6,0-1.1-0.1-1.7-0.1
			c-1.9,0-3,0.5-2.9,2.4v3.2h4v2.3h-4v15.2H78.7z"/>
	</g>
</g>
</svg>
