<?xml version="1.0" encoding="utf-8"?>
<!-- Generator: Adobe Illustrator 17.1.0, SVG Export Plug-In . SVG Version: 6.00 Build 0)  -->
<!DOCTYPE svg PUBLIC "-//W3C//DTD SVG 1.1//EN" "http://www.w3.org/Graphics/SVG/1.1/DTD/svg11.dtd">
<svg version="1.1" id="Layer_1" xmlns="http://www.w3.org/2000/svg" xmlns:xlink="http://www.w3.org/1999/xlink" x="0px" y="0px"
	 viewBox="0 0 78.9 78.9" enable-background="new 0 0 78.9 78.9" xml:space="preserve">
<g>
	<path fill="#FFFFFF" d="M59.7,36.5c0-0.5-0.4-1-1-1c-0.5,0-1,0.4-1,1V75c0,1.1-0.9,2-2,2H3.9c-1.1,0-2-0.9-2-2V21.2h15.3
		c2.2,0,3.9-1.8,3.9-3.9V2h34.5c1.1,0,2,0.9,2,2v3c0,0.5,0.4,1,1,1c0.5,0,1-0.4,1-1v-3c0-2.2-1.8-3.9-3.9-3.9h-34
		c-1.9,0-4.4,1.1-5.7,2.4L2.4,16C1.1,17.3,0,19.8,0,21.7V75c0,2.2,1.8,3.9,3.9,3.9h51.8c2.2,0,3.9-1.8,3.9-3.9V36.5z M2.9,18.5
		c0.3-0.5,0.6-0.9,0.8-1.2L17.3,3.8c0.3-0.3,0.7-0.6,1.2-0.8l0.7-0.4v14.7c0,1.1-0.9,2-2,2H2.5L2.9,18.5z"/>
	<path fill="#FFFFFF" d="M29.7,42.1l-4.4,11.8c-0.1,0.4,0,0.8,0.3,1.1c0.3,0.3,0.7,0.3,1.1,0.1l11.8-5.9c0.1,0,0.2-0.1,0.3-0.2
		l31.1-31.1c0.2-0.2,0.3-0.4,0.3-0.7c0-0.3-0.1-0.5-0.3-0.7l-5.9-5.9c-0.2-0.2-0.4-0.3-0.7-0.3c-0.3,0-0.5,0.1-0.7,0.3L29.9,41.7
		C29.8,41.8,29.7,41.9,29.7,42.1z M63.1,12.7l4.5,4.5L37.3,47.6l-9.4,4.7l3.6-9.4L63.1,12.7z"/>
	<path fill="#FFFFFF" d="M73.5,14.2l5.4-5.4V8.4c0-5.5-4.5-6.9-6.9-6.9h-0.4l-5.4,5.4L73.5,14.2z M72.4,3.5l0.2,0
		c1.2,0.1,4,0.8,4.3,4.3l0,0.2l-3.5,3.5l-4.5-4.5L72.4,3.5z"/>
</g>
</svg>
